# Blender 5.0.1
# www.blender.org
o Suzanne
v 0.588908 0.535901 0.412919
v -0.215326 0.448431 0.746357
v 0.641039 0.444469 0.350659
v -0.278086 0.344503 0.731731
v 0.661447 0.365004 0.256029
v -0.343845 0.255666 0.672827
v 0.513654 0.293964 0.393459
v -0.132605 0.223675 0.661401
v 0.529985 0.388419 0.457626
v -0.116275 0.318130 0.725567
v 0.522610 0.506704 0.470868
v -0.123649 0.436415 0.738809
v 0.447457 0.533656 0.501685
v -0.055190 0.478987 0.710084
v 0.384523 0.439565 0.509722
v 0.011128 0.398954 0.664532
v 0.323434 0.357806 0.463941
v 0.036208 0.326566 0.583026
v 0.205854 0.519639 0.427810
v 0.062241 0.504020 0.487353
v 0.288990 0.564817 0.476171
v 0.030487 0.536701 0.583348
v 0.398688 0.599743 0.483400
v -0.046513 0.551322 0.667982
v 0.405361 0.678998 0.438279
v -0.097286 0.624329 0.646678
v 0.308349 0.702564 0.394987
v -0.065046 0.661953 0.549798
v 0.225211 0.696936 0.315994
v -0.062016 0.665696 0.435079
v 0.375339 0.771515 0.185126
v -0.270921 0.701226 0.453067
v 0.421738 0.762154 0.294582
v -0.224521 0.691865 0.562524
v 0.464478 0.707414 0.383307
v -0.181782 0.637125 0.651249
v 0.546812 0.681242 0.349513
v -0.257422 0.593772 0.682951
v 0.564865 0.707468 0.235925
v -0.354260 0.607502 0.616997
v 0.563224 0.704134 0.108082
v -0.442069 0.594796 0.524880
v 0.680473 0.531840 0.140671
v -0.468433 0.406883 0.617012
v 0.655726 0.575139 0.256351
v -0.378289 0.462677 0.685058
v 0.595250 0.604696 0.364255
v -0.266430 0.510978 0.721511
v 0.607101 0.612555 0.374402
v -0.268940 0.517275 0.737611
v 0.556659 0.696022 0.356640
v -0.261936 0.606990 0.696032
v 0.467475 0.731873 0.396954
v -0.178784 0.661584 0.664895
v 0.403182 0.695755 0.457922
v -0.085103 0.642648 0.660367
v 0.391334 0.608798 0.509040
v -0.025145 0.563501 0.681713
v 0.449287 0.536571 0.527367
v -0.038998 0.483464 0.729811
v 0.508560 0.624832 0.467967
v -0.137700 0.554544 0.735909
v 0.533626 0.503479 0.496592
v -0.112634 0.433190 0.764533
v 0.602764 0.536839 0.426084
v -0.215831 0.447807 0.765477
v 0.111629 0.716863 0.457296
v 0.155030 0.683043 0.553106
v 0.393942 -0.269461 0.879478
v 0.315745 0.070140 0.779959
v 0.286339 0.194876 0.741754
v 0.413326 -0.359591 0.902587
v 0.075602 0.632398 0.348244
v 0.024164 0.763583 0.258591
v -0.394016 0.548186 -0.806539
v -0.398907 0.112560 -0.932614
v -0.265613 -0.312847 -0.722711
v -0.006877 -0.498386 -0.147328
v 0.402969 0.109011 0.467499
v 0.029574 0.068400 0.622310
v 0.569980 -0.097989 0.528999
v -0.004473 -0.160468 0.767169
v 0.672034 -0.322478 0.613751
v 0.025774 -0.392767 0.881693
v 0.724831 -0.511637 0.650472
v 0.049849 -0.585049 0.930322
v 0.700625 -0.567528 0.679931
v 0.097449 -0.633130 0.930010
v 0.579548 -0.588973 0.771801
v 0.249237 -0.624899 0.908749
v 0.425409 -0.610161 0.865999
v 0.597019 0.159810 0.333822
v -0.207215 0.072340 0.667261
v 0.752812 0.272847 0.226705
v -0.410456 0.146328 0.708999
v 0.856192 0.416008 0.001072
v -0.666109 0.250439 0.632224
v 0.857126 0.735530 0.005140
v -0.722620 0.563714 0.660108
v 0.716004 0.783295 0.066817
v -0.590877 0.641156 0.608654
v 0.503561 0.893555 0.157380
v -0.401202 0.795151 0.532498
v 0.319509 1.036028 0.201860
v -0.269306 0.971987 0.445985
v 0.185744 0.995639 0.299162
v -0.101482 0.964400 0.418247
v 0.155373 0.782018 0.415886
v 0.040483 0.769523 0.463520
v 0.275774 0.733578 0.427061
v -0.025814 0.700777 0.552101
v 0.265599 0.629240 0.477656
v 0.035818 0.604248 0.572924
v 0.384523 0.439565 0.509722
v 0.011128 0.398954 0.664532
v 0.550865 0.369841 0.441610
v -0.138479 0.294867 0.727414
v 0.637205 0.408926 0.352590
v -0.267558 0.310522 0.727708
v 0.720197 0.522322 0.233985
v -0.428710 0.397365 0.710325
v 0.706494 0.620779 0.185760
v -0.471135 0.492697 0.674009
v 0.655216 0.693162 0.183576
v -0.450606 0.572890 0.642053
v 0.497554 0.756121 0.270849
v -0.292319 0.670213 0.598334
v 0.336058 0.783538 0.360054
v -0.123504 0.733555 0.550591
v 0.415992 -0.345592 0.912691
v 0.504494 -0.293132 0.852895
v 0.303436 -0.315000 0.936255
v 0.534737 -0.406783 0.875523
v 0.319317 -0.430213 0.964837
v 0.491828 -0.460854 0.901356
v 0.376938 -0.473350 0.948990
v 0.434052 -0.477562 0.921630
v 0.274330 0.166721 0.705404
v 0.257962 0.211629 0.677707
v 0.353316 0.214861 0.642023
v 0.166618 0.194555 0.719429
v 0.397239 0.151532 0.669847
v 0.167458 0.126541 0.765115
v 0.375036 0.088720 0.702325
v 0.217062 0.071539 0.767822
v 0.579101 0.302660 0.430586
v -0.153326 0.223000 0.734253
v 0.740087 0.393267 0.268605
v -0.394458 0.269871 0.738992
v 0.795523 0.525083 0.149873
v -0.540081 0.379820 0.703619
v 0.782132 0.703681 0.123426
v -0.582194 0.555293 0.689080
v 0.742865 0.764670 0.188224
v -0.520931 0.627217 0.712198
v 0.500027 0.889187 0.291218
v -0.304208 0.801717 0.624657
v 0.372759 0.977439 0.335429
v -0.201694 0.914960 0.573599
v 0.282915 0.952820 0.399290
v -0.090480 0.912209 0.554101
v 0.235340 0.773023 0.503895
v 0.048643 0.752718 0.581300
v 0.383850 0.290581 0.674031
v 0.154069 0.265589 0.769299
v 0.520676 -0.051361 0.688831
v 0.132920 -0.093534 0.849596
v 0.615723 -0.286466 0.753898
v 0.156161 -0.336449 0.944435
v 0.653147 -0.399337 0.773549
v 0.164861 -0.452444 0.975994
v 0.639136 -0.499669 0.795443
v 0.208297 -0.546528 0.974070
v 0.578520 -0.520540 0.828275
v 0.276932 -0.553341 0.953315
v 0.434070 -0.547244 0.903395
v 0.205182 0.370655 0.592120
v 0.174764 0.533692 0.561522
v 0.401189 0.791191 0.314141
v -0.201986 0.725588 0.564219
v 0.338927 0.480725 0.513053
v 0.037340 0.447924 0.638092
v 0.294499 0.543430 0.504349
v 0.050357 0.516876 0.605572
v 0.503657 -0.264667 0.837841
v 0.288237 -0.288096 0.927155
v 0.410283 -0.046942 0.772251
v 0.266670 -0.062562 0.831793
v 0.338476 -0.054752 0.802022
v 0.306072 0.045524 0.750170
v 0.389886 0.121038 0.726118
v 0.217550 0.102295 0.797569
v 0.418433 0.173547 0.706240
v 0.174290 0.146994 0.807462
v 0.368165 0.247179 0.665816
v 0.167106 0.225311 0.749175
v 0.301534 0.247071 0.689591
v 0.229728 0.239261 0.719362
v 0.299690 0.195190 0.774040
v 0.324071 0.241245 0.721918
v 0.237903 0.231873 0.757644
v 0.369160 0.239010 0.707075
v 0.196824 0.220266 0.778526
v 0.406233 0.185361 0.741418
v 0.205175 0.163493 0.824777
v 0.376518 0.150857 0.742699
v 0.232904 0.135237 0.802242
v 0.314734 0.108442 0.787567
v 0.482971 0.000202 0.488406
v 0.009047 -0.051343 0.684897
v 0.425473 0.123900 0.628191
v 0.123886 0.091099 0.753231
v 0.457876 0.063173 0.649411
v 0.127565 0.027248 0.786359
v 0.445392 0.053228 0.473183
v 0.014553 0.006368 0.651811
v 0.430043 -0.463720 0.915592
v 0.471122 -0.452113 0.894709
v 0.384954 -0.461485 0.930435
v 0.509185 -0.395284 0.878416
v 0.336850 -0.414028 0.949867
v 0.493811 -0.318996 0.861346
v 0.321475 -0.337740 0.932797
v 0.396646 -0.394824 0.853113
v 0.477131 -0.354229 0.811872
v 0.304795 -0.372973 0.883323
v 0.486161 -0.420215 0.816341
v 0.313825 -0.438958 0.887792
v 0.450764 -0.463045 0.842739
v 0.364596 -0.472416 0.878465
v 0.409685 -0.474651 0.863621
v 0.335405 0.564873 0.506129
v 0.019456 0.530509 0.637123
v 0.363467 0.507527 0.517768
v 0.018795 0.470040 0.660670
v 0.425069 0.757524 0.342403
v -0.192468 0.690359 0.598436
v 0.374299 0.751433 0.382362
v -0.128347 0.696764 0.590761
v 0.516745 0.745509 0.334855
v -0.258766 0.661162 0.656385
v 0.634669 0.682650 0.233766
v -0.399347 0.570188 0.662472
v 0.669912 0.626086 0.242427
v -0.407188 0.508938 0.688997
v 0.684450 0.538713 0.275075
v -0.378288 0.423128 0.715690
v 0.626835 0.463203 0.382818
v -0.249206 0.367923 0.746027
v 0.550515 0.429063 0.456302
v -0.138828 0.354088 0.742106
v 0.413733 0.473445 0.527560
v -0.002745 0.428148 0.700233
v 0.322540 0.634864 0.472959
v -0.007771 0.598938 0.609907
v 0.331217 0.707198 0.430857
v -0.056539 0.665025 0.591622
v 0.349761 0.685082 0.408279
v -0.081079 0.638223 0.586907
v 0.329894 0.625809 0.447320
v -0.029139 0.586759 0.596176
v 0.417079 0.478232 0.495882
v -0.028122 0.429811 0.680464
v 0.539831 0.442748 0.434121
v -0.149513 0.367773 0.719925
v 0.603793 0.468405 0.369610
v -0.243525 0.376249 0.720911
v 0.649383 0.545893 0.274383
v -0.355910 0.436555 0.691181
v 0.638523 0.608963 0.244232
v -0.381132 0.498063 0.666984
v 0.605284 0.658606 0.238590
v -0.371286 0.552392 0.643479
v 0.504562 0.727189 0.321166
v -0.256588 0.644405 0.636742
v 0.385158 0.727912 0.381882
v -0.131850 0.671681 0.596235
v 0.428747 0.733222 0.344899
v -0.188790 0.666057 0.600932
v 0.366812 0.512314 0.486090
v -0.006582 0.471703 0.640901
v 0.345600 0.559980 0.467932
v -0.013433 0.520931 0.616788
v 0.164435 0.695318 0.291990
v -0.036624 0.673450 0.375350
v 0.193639 0.887394 0.187301
v -0.165394 0.848345 0.336158
v 0.309871 0.911598 0.104970
v -0.307666 0.844433 0.361003
v 0.468703 0.791084 0.066925
v -0.421699 0.694242 0.436089
v 0.655594 0.692323 -0.020746
v -0.593841 0.556432 0.497275
v 0.765989 0.648356 -0.073533
v -0.698866 0.489035 0.533801
v 0.780898 0.392532 -0.043181
v -0.640874 0.237897 0.546290
v 0.676697 0.247704 0.118530
v -0.429125 0.127432 0.577007
v 0.566307 0.173024 0.263213
v -0.237927 0.085554 0.596651
v -0.144109 0.926861 -0.104441
v -0.275931 0.836658 -0.446052
v -0.150746 -0.477382 -0.488821
v 0.174323 -0.323404 0.335620
v 0.388370 -0.656325 0.764554
v 0.309236 -0.557148 0.599704
v 0.242092 -0.360135 0.489439
v 0.208364 -0.301698 0.423418
v 0.738904 0.317531 -0.369155
v -0.826480 0.147276 0.279859
v 0.693672 0.348436 -0.490647
v -0.886074 0.176619 0.164322
v 0.511938 0.114447 -0.764846
v -0.909833 -0.040188 -0.175375
v 0.101201 0.115143 -0.935283
v -0.746117 0.022987 -0.583982
v 0.708030 0.063738 -0.202679
v -0.641935 -0.083087 0.357021
v 0.528756 -0.125701 -0.315748
v -0.562705 -0.244411 0.136776
v 0.462362 -0.137527 -0.601997
v -0.715267 -0.265608 -0.113748
v 0.096212 -0.218788 -0.706894
v -0.521325 -0.285952 -0.450861
v 0.427076 -0.103987 0.387763
v -0.003764 -0.150846 0.566390
v 0.348472 -0.232064 0.308085
v 0.018161 -0.267989 0.445033
v 0.562544 -0.427504 0.486127
v 0.031175 -0.485297 0.706434
v 0.474853 -0.241003 0.426052
v 0.015290 -0.290986 0.616589
v 0.655237 -0.596468 0.562867
v 0.052061 -0.662071 0.812946
v 0.433467 -0.490947 0.547685
v 0.174963 -0.519063 0.654861
v 0.360643 -0.302260 0.462536
v 0.130861 -0.327251 0.557804
v 0.524139 -0.622858 0.670272
v 0.222551 -0.655659 0.795312
v 0.401680 -0.032643 0.386228
v -0.000437 -0.076378 0.552947
v 0.392145 0.032718 0.400878
v 0.004389 -0.009455 0.561643
v 0.380275 0.094541 0.408967
v 0.006880 0.053929 0.563777
v 0.343154 -0.250645 0.208379
v -0.044602 -0.292818 0.369144
v 0.273638 -0.367490 -0.215455
v -0.272092 -0.426845 0.010807
v 0.192881 -0.341329 -0.526382
v -0.439017 -0.410055 -0.264394
v 0.079528 0.640118 -0.829341
v -0.753429 0.549524 -0.483994
v 0.156915 0.837047 -0.591028
v -0.676042 0.746453 -0.245681
v 0.268048 0.905859 -0.304930
v -0.564909 0.815265 0.040417
v 0.417810 0.704433 -0.017053
v -0.429508 0.612277 0.334248
v 0.663994 0.584703 -0.151726
v -0.671609 0.439440 0.402020
v 0.549450 0.592084 -0.180048
v -0.613818 0.465564 0.302247
v 0.424752 0.711706 -0.469932
v -0.752876 0.583624 0.018317
v 0.625468 0.634598 -0.416072
v -0.839387 0.475277 0.191262
v 0.539033 0.573336 -0.640619
v -0.925822 0.414015 -0.033285
v 0.337986 0.639983 -0.698022
v -0.839643 0.511902 -0.209773
v 0.281289 0.464445 -0.880821
v -0.896340 0.336364 -0.392572
v 0.486676 0.394416 -0.813838
v -0.978180 0.235095 -0.206503
v 0.307912 0.086954 -0.854130
v -0.826633 -0.036442 -0.383744
v 0.275697 -0.178548 -0.652957
v -0.614705 -0.275390 -0.283793
v 0.609053 0.280672 -0.610014
v -0.898887 0.116665 0.015183
v 0.461871 -0.044410 0.036286
v -0.284918 -0.125632 0.345908
v 0.381990 -0.225625 -0.265424
v -0.407883 -0.311533 0.062060
v 0.644291 0.342755 -0.693248
v -0.992901 0.164690 -0.014462
v 0.709599 -0.103885 -0.345375
v -0.712173 -0.258520 0.244097
v 0.882993 -0.134741 -0.632297
v -1.027063 -0.342483 0.159619
v 1.035140 -0.018118 -0.870276
v -1.320118 -0.274281 0.106222
v 1.033946 0.227765 -0.993166
v -1.450563 -0.042456 0.036921
v 0.878127 0.382155 -1.020973
v -1.390963 0.135364 -0.080200
v 0.724965 0.382930 -0.836650
v -1.156369 0.178312 -0.056642
v 0.740828 0.337398 -0.789833
v -1.126145 0.134342 -0.015779
v 0.862426 0.329336 -0.949689
v -1.320496 0.091916 -0.044642
v 0.967648 0.198568 -0.935217
v -1.358887 -0.054471 0.029373
v 0.971507 0.006234 -0.832855
v -1.254499 -0.235872 0.090055
v 0.866783 -0.069537 -0.633790
v -1.028912 -0.275717 0.152172
v 0.739487 -0.039668 -0.399950
v -0.782814 -0.205237 0.231201
v 0.689712 0.311431 -0.673917
v -1.004925 0.127118 0.028685
v 0.704266 0.233475 -0.720768
v -1.033455 0.044477 -0.000303
v 0.754368 -0.028065 -0.504523
v -0.868462 -0.204568 0.168308
v 0.845256 -0.062463 -0.704357
v -1.064801 -0.270205 0.087560
v 0.934278 0.000038 -0.862771
v -1.248644 -0.237382 0.042276
v 0.937271 0.143144 -0.941020
v -1.331819 -0.103647 -0.000247
v 0.854097 0.237329 -0.952912
v -1.300102 0.003034 -0.059773
v 0.745029 0.244039 -0.824691
v -1.136305 0.039421 -0.044683
v 0.638282 0.244870 -0.610410
v -0.912741 0.076178 0.032650
v 0.642485 0.111962 -0.614636
v -0.894177 -0.055169 0.022469
v 0.590724 0.034942 -0.554672
v -0.802324 -0.116569 0.022891
v 0.650174 0.034269 -0.575470
v -0.857765 -0.129738 0.049727
v 0.689757 -0.025677 -0.557227
v -0.861266 -0.194370 0.085833
v 0.669053 -0.056485 -0.533241
v -0.824525 -0.218930 0.086002
v 0.646781 0.040780 -0.335928
v -0.688822 -0.104483 0.217818
v 0.615252 -0.026771 -0.409195
v -0.705990 -0.170472 0.138597
v 0.594544 0.021519 -0.446473
v -0.726698 -0.122182 0.101319
v 0.617248 0.164053 -0.559335
v -0.847607 0.004733 0.048000
v 0.677044 0.183257 -0.656089
v -0.960147 0.005193 0.022697
v 0.662700 0.151563 -0.699001
v -0.974491 -0.026502 -0.020216
v 0.655039 -0.077720 -0.572611
v -0.838539 -0.240164 0.046632
v 0.682924 -0.046131 -0.599574
v -0.882460 -0.216385 0.049440
v 0.645346 0.006895 -0.614797
v -0.876955 -0.158674 0.016354
v 0.583891 0.014489 -0.597019
v -0.823519 -0.138584 -0.013502
v 0.635652 0.091509 -0.656984
v -0.915371 -0.077184 -0.013924
v 0.747051 0.206986 -0.870538
v -1.163006 -0.000756 -0.078622
v 0.858454 0.203815 -0.992198
v -1.324468 -0.033604 -0.087150
v 0.946804 0.117332 -0.986302
v -1.365370 -0.134145 -0.027667
v 0.946146 -0.022236 -0.901491
v -1.279859 -0.264341 0.021419
v 0.836088 -0.086455 -0.753266
v -1.088330 -0.295759 0.044605
v 0.736014 -0.045918 -0.553474
v -0.886816 -0.222420 0.119357
v 0.699106 0.195641 -0.763638
v -1.052976 0.005081 -0.037219
v 0.692437 0.037288 -0.657253
v -0.944754 -0.140777 0.021532
v 0.745213 -0.003092 -0.663562
v -0.978146 -0.190528 0.050949
v 0.777280 0.044368 -0.737780
v -1.060970 -0.155564 0.024365
v 0.734020 0.089068 -0.727887
v -1.032423 -0.103055 0.004486
v 0.761241 0.139286 -0.792567
v -1.105731 -0.063770 -0.018513
v 0.806836 0.098125 -0.795898
v -1.131943 -0.112741 0.007927
v 0.848752 0.120816 -0.832358
v -1.190557 -0.100983 0.013147
v 0.811173 0.173841 -0.847581
v -1.185051 -0.043272 -0.019939
v 0.683605 0.270467 -0.965910
v -1.197729 0.065849 -0.185902
v 0.865141 0.292487 -1.116817
v -1.432671 0.042572 -0.164136
v 1.030965 0.173174 -1.055679
v -1.482267 -0.100171 -0.013684
v 1.033500 -0.061001 -0.967487
v -1.379203 -0.323412 0.032829
v 0.829937 -0.195219 -0.776131
v -1.080119 -0.402961 0.015785
v 0.659226 -0.180496 -0.527971
v -0.791268 -0.338255 0.073409
v 0.577206 0.251626 -0.796953
v -1.002540 0.079810 -0.141985
vn 0.8778 0.2145 0.4284
vn -0.3446 0.0815 0.9352
vn 0.9804 0.0264 0.1951
vn -0.5443 -0.1394 0.8272
vn 0.7185 -0.4597 0.5219
vn -0.0454 -0.5428 0.8386
vn 0.6952 -0.0606 0.7163
vn 0.0335 -0.1326 0.9906
vn 0.3167 -0.1060 0.9426
vn 0.4613 -0.0902 0.8826
vn 0.1081 -0.5600 0.8214
vn 0.6038 -0.5061 0.6159
vn -0.4603 -0.1285 0.8784
vn 0.9564 0.0256 0.2911
vn -0.1236 0.1715 0.9774
vn 0.7384 0.2653 0.6200
vn -0.2306 0.5100 0.8287
vn 0.6458 0.6053 0.4654
vn -0.6238 0.4626 0.6300
vn 0.7865 0.6160 0.0452
vn -0.2864 0.9336 0.2153
vn 0.1767 0.9840 0.0233
vn 0.0107 0.8649 0.5018
vn 0.1852 0.8839 0.4294
vn 0.4264 0.8565 0.2908
vn -0.2478 0.7832 0.5703
vn 0.3301 0.9430 -0.0429
vn -0.4310 0.8602 0.2727
vn 0.8277 0.5604 -0.0288
vn -0.6939 0.3950 0.6021
vn 0.7801 0.5654 0.2681
vn -0.4540 0.4311 0.7797
vn 0.5168 0.1480 -0.8432
vn -0.9742 -0.0141 -0.2250
vn -0.1815 0.5059 -0.8433
vn -0.5586 0.4648 -0.6870
vn -0.7262 0.4406 -0.5277
vn 0.0501 0.5251 -0.8496
vn -0.9794 -0.0077 -0.2018
vn 0.5354 0.1570 -0.8298
vn -0.7975 -0.6009 0.0543
vn 0.6984 -0.4382 -0.5659
vn -0.3256 -0.9425 0.0757
vn 0.4507 -0.8580 -0.2462
vn 0.2397 -0.9481 -0.2090
vn -0.1375 -0.9891 -0.0527
vn 0.6791 -0.4518 -0.5784
vn -0.7905 -0.6117 0.0309
vn 0.6570 0.3990 0.6396
vn -0.0783 0.3190 0.9445
vn 0.6068 0.2990 0.7365
vn 0.0425 0.2377 0.9704
vn 0.4265 0.2902 0.8567
vn 0.2527 0.2713 0.9287
vn 0.2482 0.4206 0.8726
vn 0.3628 0.4331 0.8251
vn 0.2343 0.4687 0.8517
vn 0.3489 0.4812 0.8042
vn 0.3401 0.6070 0.7182
vn 0.1571 0.5871 0.7941
vn 0.5170 0.6021 0.6084
vn -0.0410 0.5414 0.8398
vn 0.6266 0.5050 0.5936
vn -0.1090 0.4250 0.8986
vn 0.4814 -0.5280 0.6996
vn 0.2551 -0.5526 0.7934
vn 0.5583 -0.5394 0.6304
vn 0.1557 -0.5832 0.7973
vn 0.8586 -0.0421 0.5110
vn -0.2264 -0.1601 0.9608
vn 0.9102 0.3208 0.2619
vn -0.5032 0.1671 0.8479
vn 0.8788 0.4384 0.1886
vn -0.5544 0.2825 0.7828
vn 0.6497 -0.4783 0.5909
vn 0.0538 -0.5431 0.8380
vn 0.7165 -0.2580 0.6482
vn 0.0074 -0.3351 0.9421
vn 0.9179 -0.0350 0.3954
vn -0.3496 -0.1728 0.9208
vn 0.8957 0.0423 0.4427
vn -0.3153 -0.0894 0.9448
vn 0.6317 0.7232 0.2791
vn -0.3730 0.6139 0.6957
vn 0.4702 0.8818 0.0365
vn -0.4608 0.7805 0.4224
vn 0.6072 0.7911 0.0734
vn -0.5127 0.6693 0.5377
vn 0.0139 0.9205 0.3905
vn 0.0949 0.9293 0.3569
vn -0.5651 0.4867 0.6661
vn 0.7669 0.6316 0.1139
vn -0.5072 0.6996 0.5033
vn 0.5738 0.8172 0.0552
vn 0.8167 0.0463 0.5752
vn -0.1687 -0.0609 0.9838
vn 0.5788 -0.0060 0.8154
vn 0.1731 -0.0501 0.9836
vn 0.3156 -0.0975 0.9439
vn 0.4615 -0.0816 0.8834
vn 0.3168 -0.2514 0.9146
vn 0.4684 -0.2349 0.8517
vn 0.4334 -0.1248 0.8925
vn 0.3493 -0.1340 0.9274
vn 0.5906 0.2633 0.7628
vn 0.0787 0.2077 0.9750
vn 0.6682 0.2871 0.6864
vn -0.0327 0.2109 0.9770
vn 0.6506 0.1849 0.7366
vn 0.0334 0.1178 0.9925
vn 0.6067 0.5098 0.6099
vn -0.0849 0.4346 0.8966
vn 0.0921 0.6560 0.7491
vn 0.3407 0.6830 0.6461
vn 0.7171 0.0238 0.6965
vn -0.0110 -0.0554 0.9984
vn 0.5183 0.2302 0.8236
vn 0.1772 0.1931 0.9650
vn 0.3523 0.2727 0.8953
vn 0.3341 0.2707 0.9028
vn 0.4584 -0.2866 0.8413
vn 0.3259 -0.3010 0.8962
vn 0.5569 -0.1266 0.8209
vn 0.2143 -0.1639 0.9629
vn 0.6315 0.2036 0.7482
vn 0.0512 0.1405 0.9888
vn 0.5728 0.4382 0.6927
vn 0.0097 0.3770 0.9262
vn 0.6135 0.3410 0.7123
vn 0.0132 0.2757 0.9612
vn 0.2711 0.5017 0.8214
vn 0.2963 0.5045 0.8110
vn 0.3127 0.3936 0.8645
vn 0.3176 0.3941 0.8624
vn 0.2990 0.4530 0.8399
vn 0.8855 -0.4471 -0.1266
vn -0.6171 -0.6106 0.4964
vn 0.7496 0.2013 -0.6306
vn -0.9956 0.0115 0.0930
vn -0.2803 0.6252 -0.7284
vn -0.4319 0.6087 -0.6656
vn -0.8123 0.3646 0.4553
vn 0.8120 0.5413 -0.2182
vn 0.6787 -0.6367 0.3660
vn -0.0947 -0.7209 0.6866
vn 0.6406 -0.1333 0.7562
vn 0.1124 -0.1907 0.9752
vn -0.6188 0.6753 0.4013
vn 0.5838 0.8061 -0.0973
vn 0.0751 0.9838 0.1631
vn -0.1183 0.9627 0.2433
vn 0.7964 0.5983 0.0882
vn -0.5973 0.4467 0.6661
vn 0.7148 -0.3285 0.6173
vn -0.0001 -0.4063 0.9138
vn 0.2737 0.6498 0.7091
vn 0.1886 0.6405 0.7444
vn 0.4074 0.0620 0.9111
vn 0.3459 0.0553 0.9366
vn -0.1045 0.2119 0.9717
vn 0.7138 0.3009 0.6324
vn 0.1724 -0.0130 0.9849
vn 0.5735 0.0306 0.8186
vn 0.6986 0.3330 0.6333
vn -0.0993 0.2462 0.9641
vn 0.5483 0.5059 0.6659
vn -0.0046 0.4458 0.8951
vn 0.8187 0.5742 -0.0063
vn -0.6745 0.4118 0.6128
vn 0.8608 0.5010 -0.0893
vn -0.7482 0.3260 0.5779
vn 0.9130 0.3743 -0.1625
vn -0.8122 0.1866 0.5527
vn 0.5895 -0.2295 0.7745
vn 0.1782 -0.2743 0.9450
vn 0.1994 0.2461 0.9485
vn 0.4817 0.2768 0.8314
vn 0.0611 0.3152 0.9471
vn 0.5634 0.3698 0.7388
vn 0.1520 0.6052 0.7814
vn 0.3314 0.6247 0.7070
vn -0.3079 0.9481 -0.0788
vn -0.0171 0.9798 -0.1994
vn -0.7794 0.6182 0.1021
vn 0.4953 0.7568 -0.4264
vn -0.9191 -0.1000 0.3811
vn 0.9191 0.1000 -0.3811
vn 0.5582 -0.7531 0.3481
vn -0.0027 -0.8141 0.5807
vn 0.3891 0.1710 0.9052
vn 0.3343 0.1651 0.9279
vn 0.4910 0.1256 0.8621
vn 0.2423 0.0985 0.9652
vn -0.1529 0.0747 0.9854
vn 0.7820 0.1764 0.5978
vn -0.0667 0.3422 0.9372
vn 0.6397 0.4191 0.6444
vn 0.0911 0.4550 0.8858
vn 0.4740 0.4967 0.7271
vn -0.2040 -0.1772 0.9628
vn 0.8477 -0.0628 0.5268
vn 0.2598 -0.3893 0.8837
vn 0.5115 -0.3619 0.7794
vn 0.7353 -0.1883 0.6511
vn -0.0163 -0.2700 0.9627
vn 0.8450 0.0118 0.5347
vn -0.2103 -0.1030 0.9722
vn 0.7902 0.3415 0.5088
vn -0.2512 0.2283 0.9406
vn 0.7369 0.5298 0.4198
vn -0.3115 0.4158 0.8545
vn 0.4999 0.8505 0.1633
vn -0.3867 0.7541 0.5309
vn 0.3059 0.9062 0.2921
vn -0.1728 0.8541 0.4906
vn 0.3326 0.7519 0.5693
vn 0.0312 0.7191 0.6942
vn 0.2091 0.6578 0.7236
vn 0.2418 0.6614 0.7100
vn 0.6613 0.0478 0.7486
vn 0.0596 -0.0176 0.9981
vn 0.6014 0.2152 0.7694
vn 0.0847 0.1590 0.9836
vn 0.1472 -0.2786 0.9491
vn 0.6145 -0.2278 0.7553
vn 0.3525 -0.5100 0.7846
vn 0.4003 -0.5048 0.7648
vn 0.0123 0.1412 0.9899
vn 0.6590 0.2116 0.7218
vn -0.0412 0.3789 0.9245
vn 0.6064 0.4494 0.6560
vn 0.0232 0.7926 0.6093
vn 0.2652 0.8190 0.5089
vn 0.0458 0.8988 0.4360
vn 0.1087 0.9056 0.4099
vn 0.3989 0.8827 0.2484
vn -0.2633 0.8107 0.5229
vn 0.5275 0.8300 0.1811
vn -0.3894 0.7303 0.5613
vn 0.8976 0.0733 0.4347
vn -0.3279 -0.0599 0.9428
vn 0.9404 0.2763 0.1982
vn -0.5604 0.1131 0.8204
vn 0.8731 0.4575 0.1685
vn -0.5681 0.3008 0.7660
vn -0.7694 0.5540 -0.3180
vn 0.2060 0.6601 -0.7224
vn -0.9886 0.0733 -0.1317
vn 0.5760 0.2435 -0.7804
vn -0.5769 0.5479 -0.6058
vn -0.1273 0.5968 -0.7923
vn 0.2623 0.5833 -0.7687
vn -0.8266 0.4648 -0.3173
vn 0.0208 0.6714 -0.7408
vn -0.6567 0.5978 -0.4599
vn -0.0616 0.7085 -0.7031
vn -0.5802 0.6520 -0.4880
vn 0.6033 -0.0218 -0.7972
vn -0.9705 -0.1929 -0.1447
vn 0.5458 -0.7856 -0.2916
vn -0.4363 -0.8924 0.1156
vn 0.4318 -0.8797 -0.1993
vn -0.2757 -0.9566 0.0940
vn 0.1304 -0.8443 -0.5198
vn -0.2989 -0.8910 -0.3418
vn -0.0493 -0.4656 -0.8836
vn -0.4994 -0.5145 -0.6970
vn -0.0410 -0.7904 -0.6112
vn -0.2547 -0.8136 -0.5226
vn 0.3168 -0.9227 0.2196
vn 0.1050 -0.9458 0.3074
vn 0.2893 -0.9471 0.1388
vn 0.0717 -0.9708 0.2290
vn 0.8004 -0.0388 -0.5983
vn -0.9639 -0.2307 0.1332
vn 0.7178 0.0906 -0.6903
vn -0.9952 -0.0957 0.0199
vn -0.1508 -0.4123 -0.8985
vn -0.4497 -0.4448 -0.7746
vn -0.2531 -0.6368 -0.7283
vn -0.2186 -0.6330 -0.7426
vn 0.5920 -0.4504 -0.6683
vn -0.7936 -0.6011 -0.0939
vn 0.6999 0.0475 -0.7127
vn -0.9906 -0.1364 -0.0118
vn 0.7162 0.2819 -0.6384
vn -0.9929 0.0960 0.0702
vn 0.6820 0.2848 -0.6736
vn -0.9945 0.1025 0.0215
vn 0.7608 0.3622 -0.5384
vn -0.9684 0.1742 0.1785
vn 0.2562 -0.9618 -0.0966
vn -0.0675 -0.9970 0.0376
vn 0.2233 -0.7442 -0.6295
vn -0.4583 -0.8183 -0.3469
vn 0.3588 -0.9140 -0.1896
vn -0.2123 -0.9761 0.0472
vn 0.4624 -0.8733 0.1532
vn -0.0511 -0.9292 0.3661
vn 0.4736 -0.8762 0.0888
vn -0.1033 -0.9390 0.3281
vn 0.9325 -0.1146 -0.3426
vn -0.8620 -0.3097 0.4014
vn 0.9630 -0.2553 0.0863
vn -0.5567 -0.4206 0.7164
vn 0.0682 -0.4901 -0.8690
vn -0.5657 -0.5590 -0.6062
vn -0.0665 0.9731 -0.2208
vn -0.2876 0.9490 -0.1291
vn -0.1882 0.7921 -0.5807
vn -0.4226 0.7666 -0.4835
vn -0.0481 0.2337 -0.9711
vn -0.6901 0.1639 -0.7050
vn 0.1079 0.7715 -0.6270
vn -0.6554 0.6885 -0.3105
vn 0.1943 0.9526 0.2342
vn -0.1450 0.9157 0.3748
vn 0.4047 0.8238 -0.3969
vn -0.7085 0.7028 0.0646
vn 0.4104 0.5803 -0.7034
vn -0.8824 0.4397 -0.1674
vn 0.3482 -0.0800 -0.9340
vn -0.8797 -0.2136 -0.4249
vn 0.1183 0.0931 -0.9886
vn -0.7912 -0.0058 -0.6115
vn 0.3463 0.6452 -0.6810
vn -0.8344 0.5168 -0.1914
vn 0.5317 0.7424 -0.4076
vn -0.7886 0.5988 0.1398
vn 0.7399 0.6724 0.0221
vn -0.6183 0.5246 0.5852
vn 0.0302 0.7831 -0.6211
vn -0.5999 0.7146 -0.3599
vn 0.2965 0.8876 0.3524
vn -0.1207 0.8422 0.5254
vn -0.4779 -0.3682 -0.7975
vn -0.1614 -0.3338 -0.9287
vn -0.0758 0.9966 -0.0327
vn -0.1538 0.9881 -0.0004
vn 0.0939 0.5866 0.8044
vn 0.3909 0.6189 0.6813
vn 0.8638 0.2946 -0.4088
vn -0.9361 0.0988 0.3375
vn 0.9389 0.3155 -0.1377
vn -0.8019 0.1262 0.5840
vn 0.8316 0.2367 -0.5024
vn -0.9689 0.0409 0.2441
vn 0.8734 0.0785 -0.4806
vn -0.9534 -0.1202 0.2768
vn 0.8488 -0.5271 0.0417
vn -0.4592 -0.6693 0.5841
vn 0.6045 -0.7433 0.2865
vn -0.0796 -0.8177 0.5701
vn 0.7013 -0.6165 0.3579
vn -0.1196 -0.7058 0.6983
vn 0.8239 -0.5017 0.2637
vn -0.2912 -0.6230 0.7260
vn 0.9086 -0.3819 0.1691
vn -0.4379 -0.5283 0.7274
vn 0.6129 0.0143 0.7900
vn 0.1281 -0.0384 0.9910
vn 0.3640 -0.5737 -0.7337
vn -0.6596 -0.6850 -0.3094
vn 0.2871 -0.5697 -0.7701
vn -0.6328 -0.6697 -0.3887
vn 0.3854 -0.9111 -0.1464
vn -0.2009 -0.9748 0.0966
vn 0.7411 -0.6176 -0.2632
vn -0.5820 -0.7615 0.2853
vn 0.3467 -0.6793 -0.6468
vn -0.5673 -0.7787 -0.2679
vn 0.4803 0.7599 0.4379
vn -0.1641 0.6898 0.7051
vn 0.6366 0.5930 0.4930
vn -0.2026 0.5017 0.8409
vn 0.4974 0.5543 0.6674
vn 0.0226 0.5026 0.8642
vn 0.5351 0.3911 0.7488
vn 0.0837 0.3420 0.9360
vn 0.7063 0.3936 0.5884
vn -0.1472 0.3008 0.9423
vn 0.8658 0.1191 0.4860
vn -0.2784 -0.0054 0.9604
vn 0.4247 0.9018 0.0800
vn -0.4025 0.8118 0.4230
vn -0.3123 0.9307 0.1907
vn 0.1779 0.9840 -0.0125
vn -0.6674 0.3517 0.6564
vn 0.8554 0.5173 0.0251
vn -0.1601 -0.0184 0.9869
vn 0.8051 0.0866 0.5868
vn 0.7687 -0.1451 0.6229
vn -0.0670 -0.2360 0.9694
vn 0.9244 -0.0770 0.3736
vn -0.3616 -0.2168 0.9068
vn 0.8051 -0.5836 -0.1059
vn -0.5221 -0.7280 0.4444
vn 0.0309 0.6594 0.7511
vn 0.3837 0.6978 0.6049
vn 0.8662 -0.3331 -0.3725
vn -0.7970 -0.5140 0.3171
vn 0.3490 0.5928 0.7258
vn 0.1589 0.5721 0.8046
vn -0.0563 0.9938 -0.0956
vn -0.2108 0.9770 -0.0316
vn 0.8422 0.3302 0.4263
vn -0.3428 0.2013 0.9176
vn 0.5040 0.8108 0.2975
vn -0.2882 0.7247 0.6259
vn 0.9661 -0.1923 0.1720
vn -0.5104 -0.3529 0.7842
vn 0.8497 0.0101 0.5271
vn -0.2185 -0.1061 0.9700
vn 0.8576 -0.0132 0.5141
vn -0.2288 -0.1314 0.9646
vn 0.9310 -0.0885 -0.3541
vn -0.8738 -0.2847 0.3942
vn 0.9035 -0.3135 -0.2924
vn -0.7702 -0.4955 0.4015
vn 0.8995 0.0508 -0.4339
vn -0.9336 -0.1486 0.3261
vn 0.8976 -0.4194 0.1358
vn -0.4467 -0.5656 0.6932
vn 0.9111 -0.4113 0.0253
vn -0.5350 -0.5686 0.6248
vn 0.8606 -0.4989 0.1021
vn -0.4303 -0.6393 0.6373
vn -0.0980 0.8648 -0.4924
vn -0.4363 0.8280 -0.3522
vn 0.8132 0.4440 -0.3761
vn -0.9059 0.2571 0.3366
vn 0.8177 -0.5698 0.0821
vn -0.4017 -0.7024 0.5876
vn -0.2407 0.9171 -0.3177
vn -0.2251 0.9188 -0.3242
vn 0.8547 -0.4112 0.3169
vn -0.2918 -0.5359 0.7922
vn 0.5875 -0.6009 0.5421
vn 0.0850 -0.6555 0.7504
vn -0.7008 -0.6330 0.3289
vn 0.8300 -0.4665 -0.3058
vn -0.9764 -0.0984 -0.1924
vn 0.5566 0.0683 -0.8280
vn -0.7970 0.5236 -0.3010
vn 0.2425 0.6367 -0.7320
vn -0.2870 0.9073 -0.3073
vn -0.1841 0.9185 -0.3499
vn 0.4228 0.4823 0.7672
vn 0.1572 0.4534 0.8773
vn 0.5662 0.5169 0.6420
vn -0.0357 0.4514 0.8916
vn 0.5653 0.4819 0.6694
vn -0.0094 0.4194 0.9077
vn 0.4446 0.4875 0.7515
vn 0.1303 0.4533 0.8818
vn 0.5143 0.6917 0.5070
vn -0.1266 0.6220 0.7727
vn 0.6507 0.4244 0.6296
vn -0.0856 0.3443 0.9349
vn 0.5402 0.4092 0.7353
vn 0.0674 0.3578 0.9314
vn 0.3596 0.4490 0.8180
vn 0.2425 0.4363 0.8665
vn -0.3325 0.8636 0.3789
vn 0.3361 0.9363 0.1018
vn 0.8018 0.4458 0.3979
vn -0.3561 0.3199 0.8780
vn 0.7230 0.2622 0.6391
vn -0.0991 0.1728 0.9800
vn 0.7707 0.2392 0.5906
vn -0.1616 0.1378 0.9772
vn 0.6580 0.6512 0.3781
vn -0.3086 0.5461 0.7788
vn 0.3516 0.8872 0.2988
vn -0.1961 0.8276 0.5259
vn 0.3161 -0.9063 0.2805
vn 0.1451 -0.9249 0.3514
vn 0.6846 -0.7132 0.1505
vn -0.2356 -0.8133 0.5320
vn 0.9996 -0.0039 -0.0265
vn -0.7072 -0.1895 0.6811
vn 0.6209 0.5473 -0.5612
vn -0.9219 0.3795 0.0785
vn -0.5342 0.6890 -0.4897
vn -0.1013 0.7361 -0.6692
vn -0.6787 0.6797 -0.2781
vn 0.1483 0.7697 -0.6210
vn -0.7442 -0.4442 -0.4988
vn 0.2454 -0.3365 -0.9091
vn -0.4628 -0.4850 -0.7421
vn -0.1116 -0.4468 -0.8877
vn 0.0918 -0.3501 -0.9322
vn -0.6520 -0.4310 -0.6238
vn -0.8726 0.4828 0.0737
vn 0.5646 0.6391 -0.5222
vn 0.3084 -0.4973 -0.8109
vn -0.6894 -0.6058 -0.3973
vn -0.0786 -0.9759 0.2037
vn 0.3762 -0.9264 0.0151
vt 0.346058 0.874985
vt 0.359549 0.888907
vt 0.344782 0.910455
vt 0.318469 0.884305
vt 0.678893 0.861126
vt 0.653037 0.871538
vt 0.644139 0.857078
vt 0.662193 0.832954
vt 0.326709 0.923851
vt 0.294099 0.890724
vt 0.706043 0.849450
vt 0.684150 0.814245
vt 0.243764 0.929698
vt 0.244164 0.965345
vt 0.221355 0.971931
vt 0.221355 0.925783
vt 0.706043 0.900118
vt 0.679033 0.900012
vt 0.380265 0.887393
vt 0.381782 0.909671
vt 0.652896 0.893454
vt 0.202855 0.896098
vt 0.205870 0.876715
vt 0.229994 0.876590
vt 0.223316 0.913632
vt 0.663147 0.926553
vt 0.644139 0.907747
vt 0.256486 0.877636
vt 0.247439 0.925783
vt 0.685638 0.935455
vt 0.224609 0.843303
vt 0.248085 0.835426
vt 0.706043 0.897574
vt 0.728136 0.892888
vt 0.750625 0.920862
vt 0.733392 0.932940
vt 0.202855 0.859492
vt 0.754288 0.884879
vt 0.765802 0.899736
vt 0.954110 0.280482
vt 0.953449 0.260002
vt 0.969854 0.257615
vt 0.971376 0.294242
vt 0.730111 0.854743
vt 0.754465 0.863196
vt 0.994170 0.253833
vt 0.994170 0.301590
vt 0.706939 0.847682
vt 0.969213 0.223736
vt 0.993387 0.210007
vt 0.736178 0.814245
vt 0.752152 0.828637
vt 0.380114 0.837481
vt 0.360876 0.838247
vt 0.345679 0.818159
vt 0.381782 0.817405
vt 0.765802 0.849807
vt 0.345509 0.853319
vt 0.319377 0.846057
vt 0.174602 0.879563
vt 0.152723 0.880141
vt 0.148470 0.861151
vt 0.166584 0.845150
vt 0.293949 0.840812
vt 0.328673 0.805003
vt 0.202855 0.879928
vt 0.192629 0.835426
vt 0.200752 0.927451
vt 0.173944 0.916215
vt 0.151951 0.900590
vt 0.564967 0.897408
vt 0.568915 0.879457
vt 0.573410 0.879008
vt 0.568943 0.898022
vt 0.149537 0.879669
vt 0.148470 0.901533
vt 0.564967 0.858329
vt 0.570719 0.854937
vt 0.378759 0.941000
vt 0.372115 0.941673
vt 0.363627 0.925722
vt 0.367604 0.923851
vt 0.953863 0.242405
vt 0.948410 0.260209
vt 0.948542 0.240019
vt 0.378997 0.963689
vt 0.373123 0.961941
vt 0.949353 0.283282
vt 0.368731 0.981035
vt 0.363627 0.976866
vt 0.751337 0.260931
vt 0.743550 0.279303
vt 0.738608 0.278362
vt 0.746520 0.257422
vt 0.574198 0.833576
vt 0.568270 0.834162
vt 0.564967 0.816052
vt 0.570636 0.812858
vt 0.751337 0.297589
vt 0.746269 0.299215
vt 0.571153 0.854937
vt 0.564967 0.852916
vt 0.767634 0.833669
vt 0.768998 0.813981
vt 0.773079 0.814662
vt 0.773079 0.837232
vt 0.935643 0.167718
vt 0.939742 0.167927
vt 0.946726 0.185432
vt 0.941827 0.187514
vt 0.768736 0.795338
vt 0.772786 0.794684
vt 0.943712 0.147531
vt 0.946726 0.149196
vt 0.782982 0.282210
vt 0.766536 0.309611
vt 0.752774 0.293641
vt 0.187330 0.930644
vt 0.196060 0.946608
vt 0.172354 0.958670
vt 0.790301 0.309611
vt 0.193390 0.971179
vt 0.805417 0.293220
vt 0.837488 0.310393
vt 0.819748 0.308928
vt 0.831274 0.282721
vt 0.806013 0.270845
vt 0.806013 0.293098
vt 0.791028 0.253867
vt 0.806948 0.269030
vt 0.769655 0.253148
vt 0.819122 0.253148
vt 0.752146 0.270258
vt 0.837488 0.253935
vt 0.172354 0.927451
vt 0.940033 0.121319
vt 0.919968 0.124480
vt 0.913479 0.092178
vt 0.930212 0.087446
vt 0.904506 0.056706
vt 0.923098 0.047090
vt 0.948410 0.147531
vt 0.920742 0.138246
vt 0.898652 0.041426
vt 0.917484 0.011983
vt 0.293949 0.794546
vt 0.327389 0.776095
vt 0.333536 0.795441
vt 0.302995 0.805003
vt 0.876748 0.033742
vt 0.905456 0.002093
vt 0.294819 0.749570
vt 0.329197 0.748792
vt 0.854541 0.033777
vt 0.867953 0.000000
vt 0.293949 0.688131
vt 0.330969 0.687868
vt 0.018251 0.773750
vt 0.059522 0.740286
vt 0.071486 0.777171
vt 0.026775 0.806372
vt 0.155255 0.340229
vt 0.197515 0.319306
vt 0.217806 0.341311
vt 0.178676 0.387734
vt 0.702398 0.748532
vt 0.743520 0.748239
vt 0.731751 0.802628
vt 0.668265 0.814245
vt 0.645986 0.297926
vt 0.610159 0.287704
vt 0.610178 0.257422
vt 0.645509 0.257422
vt 0.709658 0.690719
vt 0.738920 0.696443
vt 0.575010 0.372311
vt 0.607293 0.313269
vt 0.623558 0.349075
vt 0.596020 0.380866
vt 0.701137 0.650555
vt 0.743520 0.632538
vt 0.667249 0.310652
vt 0.660986 0.344083
vt 0.669805 0.628707
vt 0.680982 0.596893
vt 0.688398 0.341746
vt 0.672161 0.361341
vt 0.163878 0.672137
vt 0.161166 0.644394
vt 0.195113 0.642044
vt 0.182965 0.659246
vt 0.727662 0.387727
vt 0.716798 0.413815
vt 0.098715 0.677290
vt 0.103926 0.649057
vt 0.773208 0.420597
vt 0.745300 0.439217
vt 0.061219 0.678861
vt 0.048063 0.647776
vt 0.774029 0.458358
vt 0.746442 0.464270
vt 0.090492 0.872875
vt 0.058309 0.865078
vt 0.074831 0.834551
vt 0.101890 0.852995
vt 0.028239 0.834551
vt 0.024924 0.890098
vt 0.000000 0.894657
vt 0.001834 0.845039
vt 0.101890 0.922168
vt 0.076639 0.920275
vt 0.026240 0.911031
vt 0.005420 0.924508
vt 0.095497 0.952282
vt 0.075543 0.941161
vt 0.703694 0.472811
vt 0.711136 0.451049
vt 0.709997 0.492751
vt 0.575010 0.716132
vt 0.614138 0.721550
vt 0.613672 0.745906
vt 0.594895 0.758512
vt 0.708352 0.433064
vt 0.580512 0.690548
vt 0.620053 0.704207
vt 0.770808 0.652464
vt 0.745570 0.634921
vt 0.743520 0.596893
vt 0.773896 0.627325
vt 0.605951 0.674744
vt 0.634479 0.687268
vt 0.768183 0.695034
vt 0.743520 0.702653
vt 0.648494 0.637000
vt 0.661386 0.657861
vt 0.773627 0.714217
vt 0.754551 0.720980
vt 0.676081 0.658477
vt 0.625504 0.375732
vt 0.649527 0.367445
vt 0.688925 0.674307
vt 0.604766 0.411179
vt 0.693382 0.716600
vt 0.600786 0.440689
vt 0.585561 0.435308
vt 0.687353 0.746835
vt 0.628610 0.476328
vt 0.587689 0.509307
vt 0.634704 0.596893
vt 0.603106 0.560001
vt 0.653663 0.558704
vt 0.647038 0.592770
vt 0.641603 0.482943
vt 0.630677 0.517933
vt 0.661838 0.549478
vt 0.698787 0.514336
vt 0.681242 0.484963
vt 0.604231 0.787943
vt 0.626898 0.766397
vt 0.667534 0.514697
vt 0.659468 0.486878
vt 0.632440 0.802969
vt 0.640476 0.775424
vt 0.675849 0.540739
vt 0.897179 0.107856
vt 0.896802 0.094497
vt 0.891289 0.082037
vt 0.889541 0.118537
vt 0.878496 0.070127
vt 0.363958 0.746286
vt 0.363758 0.773193
vt 0.855921 0.068548
vt 0.362702 0.681985
vt 0.361271 0.739476
vt 0.409499 0.727578
vt 0.394854 0.674052
vt 0.417780 0.666451
vt 0.432084 0.723408
vt 0.850473 0.065421
vt 0.354815 0.646176
vt 0.373848 0.650822
vt 0.378778 0.678019
vt 0.390182 0.637450
vt 0.385115 0.731725
vt 0.388084 0.751544
vt 0.408971 0.735181
vt 0.556374 0.774781
vt 0.567423 0.772720
vt 0.565016 0.787328
vt 0.556458 0.791849
vt 0.311528 0.946649
vt 0.300805 0.936366
vt 0.309349 0.934185
vt 0.321081 0.946211
vt 0.401666 0.959765
vt 0.411781 0.959580
vt 0.407030 0.975175
vt 0.396838 0.973575
vt 0.687708 0.968302
vt 0.689763 0.947019
vt 0.698412 0.947378
vt 0.698113 0.965488
vt 0.396838 0.937778
vt 0.408677 0.944082
vt 0.899529 0.566185
vt 0.899839 0.580658
vt 0.889673 0.587851
vt 0.889673 0.566670
vt 0.289734 0.668529
vt 0.278912 0.669341
vt 0.279291 0.651548
vt 0.290822 0.658058
vt 0.665169 0.947386
vt 0.648455 0.943163
vt 0.647716 0.938144
vt 0.660517 0.935455
vt 0.556374 0.812858
vt 0.565109 0.810952
vt 0.328632 0.967115
vt 0.320423 0.969755
vt 0.314862 0.986233
vt 0.306768 0.983192
vt 0.311402 0.969461
vt 0.303990 0.950206
vt 0.271964 0.673729
vt 0.271964 0.656277
vt 0.659436 0.953290
vt 0.644139 0.947199
vt 0.732844 0.939548
vt 0.739864 0.940041
vt 0.739370 0.950295
vt 0.731238 0.954643
vt 0.681777 0.950234
vt 0.679229 0.942042
vt 0.685952 0.935455
vt 0.755298 0.957246
vt 0.751985 0.964922
vt 0.679229 0.966055
vt 0.574198 0.776197
vt 0.569123 0.785731
vt 0.295618 0.943868
vt 0.755298 0.932940
vt 0.659951 0.963209
vt 0.644139 0.970515
vt 0.293949 0.965301
vt 0.299507 0.990048
vt 0.989693 0.430066
vt 0.980723 0.450371
vt 0.960318 0.446471
vt 0.975083 0.404001
vt 0.592074 0.549445
vt 0.587595 0.528485
vt 0.984316 0.465631
vt 0.989693 0.476176
vt 0.575010 0.562952
vt 0.575547 0.558742
vt 0.345498 0.633918
vt 0.332811 0.655653
vt 0.333597 0.638645
vt 0.328632 0.925523
vt 0.318068 0.923851
vt 0.406761 0.637409
vt 0.299121 0.656184
vt 0.083642 0.723923
vt 0.098949 0.761614
vt 0.301785 0.640581
vt 0.096321 0.715370
vt 0.111152 0.752878
vt 0.306936 0.624753
vt 0.348224 0.606465
vt 0.107535 0.678861
vt 0.122971 0.741794
vt 0.866230 0.113731
vt 0.868695 0.093411
vt 0.872561 0.092133
vt 0.870601 0.110811
vt 0.861765 0.072083
vt 0.885897 0.112940
vt 0.203993 0.932552
vt 0.202855 0.925783
vt 0.221355 0.944457
vt 0.215647 0.945871
vt 0.895201 0.103044
vt 0.220574 0.961910
vt 0.215086 0.962428
vt 0.212946 0.974008
vt 0.204265 0.982789
vt 0.202855 0.978087
vt 0.210295 0.971508
vt 0.757008 0.972353
vt 0.757584 0.963794
vt 0.771072 0.963794
vt 0.770496 0.972353
vt 0.890379 0.957627
vt 0.900372 0.957433
vt 0.904226 0.967503
vt 0.894234 0.967698
vt 0.755298 0.947286
vt 0.771857 0.949418
vt 0.890459 0.943120
vt 0.904226 0.941253
vt 0.756714 0.932940
vt 0.770491 0.937399
vt 0.754249 0.797306
vt 0.756681 0.811458
vt 0.743520 0.811354
vt 0.743520 0.794684
vt 0.918059 0.941253
vt 0.918059 0.962552
vt 0.904226 0.966408
vt 0.904226 0.945109
vt 0.884214 0.085887
vt 0.873418 0.065837
vt 0.155348 0.948812
vt 0.172354 0.952949
vt 0.170540 0.962714
vt 0.148470 0.967190
vt 0.170540 0.942844
vt 0.148470 0.927451
vt 0.161848 0.970988
vt 0.430452 0.817943
vt 0.424943 0.831444
vt 0.424943 0.805003
vt 0.288329 0.576844
vt 0.290967 0.593466
vt 0.282516 0.593824
vt 0.278505 0.581093
vt 0.666479 0.556165
vt 0.679669 0.550960
vt 0.281123 0.560650
vt 0.271964 0.570417
vt 0.696659 0.535656
vt 0.697998 0.548888
vt 0.675835 0.476016
vt 0.691755 0.466023
vt 0.723929 0.539346
vt 0.717772 0.551568
vt 0.290967 0.607826
vt 0.279556 0.607336
vt 0.658055 0.567168
vt 0.282710 0.651548
vt 0.271964 0.642216
vt 0.673869 0.742279
vt 0.661562 0.774102
vt 0.653115 0.768317
vt 0.613906 0.417850
vt 0.610872 0.442938
vt 0.678575 0.716334
vt 0.629682 0.388426
vt 0.679536 0.683745
vt 0.650492 0.383342
vt 0.666723 0.671497
vt 0.669534 0.373486
vt 0.666090 0.386058
vt 0.564147 0.666045
vt 0.572002 0.670928
vt 0.567099 0.690731
vt 0.559424 0.680297
vt 0.693539 0.411633
vt 0.684225 0.421265
vt 0.555429 0.630429
vt 0.570670 0.630134
vt 0.696913 0.435451
vt 0.564074 0.613796
vt 0.572002 0.606465
vt 0.698734 0.450267
vt 0.732459 0.561159
vt 0.741971 0.552436
vt 0.748823 0.566135
vt 0.738347 0.571690
vt 0.687114 0.459336
vt 0.693022 0.448892
vt 0.974028 0.852337
vt 0.967185 0.857309
vt 0.962361 0.839452
vt 0.967277 0.839412
vt 0.691684 0.435660
vt 0.964651 0.824596
vt 0.969507 0.826210
vt 0.556955 0.709039
vt 0.569005 0.690731
vt 0.572002 0.694878
vt 0.562871 0.710393
vt 0.966900 0.810105
vt 0.972371 0.811056
vt 0.556375 0.744697
vt 0.564385 0.742874
vt 0.989441 0.779839
vt 0.994393 0.786911
vt 0.558884 0.758878
vt 0.566383 0.755832
vt 0.271964 0.486718
vt 0.278065 0.480024
vt 0.287396 0.491002
vt 0.280559 0.496030
vt 0.567501 0.772720
vt 0.572002 0.765527
vt 0.293886 0.511874
vt 0.285736 0.511836
vt 0.635303 0.393142
vt 0.618688 0.418510
vt 0.288394 0.542028
vt 0.282241 0.540443
vt 0.616475 0.440064
vt 0.275961 0.560650
vt 0.271964 0.555784
vt 0.630111 0.475287
vt 0.633091 0.468721
vt 0.148464 0.891121
vt 0.143656 0.894780
vt 0.135570 0.862398
vt 0.141940 0.862781
vt 0.643353 0.480125
vt 0.646333 0.473560
vt 0.139387 0.848323
vt 0.145757 0.848707
vt 0.675245 0.470182
vt 0.982761 0.866153
vt 0.978237 0.870857
vt 0.658470 0.481257
vt 0.659307 0.472584
vt 0.994393 0.871927
vt 0.989470 0.879443
vt 0.140609 0.834552
vt 0.148464 0.837779
vt 0.055572 0.890027
vt 0.058309 0.916646
vt 0.472011 0.900235
vt 0.507390 0.903093
vt 0.504877 0.923550
vt 0.473655 0.929187
vt 0.058309 0.839934
vt 0.485204 0.857736
vt 0.522074 0.856132
vt 0.771253 -0.000000
vt 0.794350 0.020201
vt 0.771171 0.049264
vt 0.752146 0.030052
vt 0.472011 0.826938
vt 0.508527 0.818682
vt 0.810901 0.073576
vt 0.785752 0.094876
vt 0.118302 0.622133
vt 0.070503 0.620852
vt 0.833041 0.129564
vt 0.804419 0.145179
vt 0.169263 0.616239
vt 0.850473 0.162532
vt 0.816971 0.172524
vt 0.197071 0.613147
vt 0.814351 0.217524
vt 0.793676 0.215526
vt 0.975825 0.069492
vt 0.957345 0.061551
vt 0.976293 0.000000
vt 0.997483 0.018633
vt 0.293949 0.256305
vt 0.244721 0.302809
vt 0.232768 0.273797
vt 0.280200 0.242146
vt 0.973103 0.123092
vt 0.948410 0.120730
vt 0.197924 0.301437
vt 0.977593 0.162141
vt 0.963610 0.168233
vt 0.044793 0.335486
vt 0.052918 0.318685
vt 0.090144 0.299336
vt 0.073642 0.335482
vt 0.292099 0.708806
vt 0.282598 0.748394
vt 0.260696 0.750888
vt 0.259259 0.719323
vt 0.207187 0.765655
vt 0.270085 0.770427
vt 0.221872 0.788752
vt 0.209693 0.731260
vt 0.160458 0.766898
vt 0.176218 0.800413
vt 0.162010 0.733340
vt 0.985026 0.657830
vt 0.979196 0.690038
vt 0.952377 0.683680
vt 0.957225 0.651284
vt 0.948410 0.074646
vt 0.939492 0.036761
vt 0.987116 0.628915
vt 0.958497 0.618218
vt 0.731238 0.942722
vt 0.731238 0.971021
vt 0.707909 0.963435
vt 0.706043 0.932940
vt 0.991309 0.613703
vt 0.952377 0.589047
vt 0.164731 0.701279
vt 0.148470 0.691565
vt 0.158270 0.678861
vt 0.212446 0.696016
vt 0.424943 0.901879
vt 0.416111 0.937778
vt 0.381782 0.916024
vt 0.381782 0.877850
vt 0.057921 0.834552
vt 0.000000 0.833942
vt 0.094050 0.808397
vt 0.237481 0.814194
vt 0.281784 0.790148
vt 0.260132 0.687940
vt 0.193148 0.835426
vt 0.122376 0.322236
vt 0.102814 0.333051
vt 0.292417 0.678861
vt 0.424632 0.857555
vt 0.385432 0.851588
vt 0.116829 0.789556
vt 0.416102 0.832587
vt 0.388683 0.836157
vt 0.395558 0.822463
vt 0.413825 0.819802
vt 0.129772 0.763496
vt 0.126068 0.776740
vt 0.411691 0.805003
vt 0.401060 0.809641
vt 0.134623 0.751674
vt 0.151323 0.325468
vt 0.997482 0.209601
vt 0.988021 0.210007
vt 0.021646 0.029091
vt 0.091108 0.051472
vt 0.076388 0.097764
vt 0.000000 0.088524
vt 0.489700 0.529803
vt 0.464588 0.481359
vt 0.525953 0.417452
vt 0.560852 0.478693
vt 0.072537 0.173793
vt 0.005230 0.174858
vt 0.509582 0.580951
vt 0.574357 0.544916
vt 0.089418 0.275906
vt 0.047019 0.296543
vt 0.667447 0.206839
vt 0.752146 0.189224
vt 0.747887 0.257422
vt 0.649825 0.256246
vt 0.648407 0.213953
vt 0.633712 0.257422
vt 0.131847 0.320841
vt 0.148470 0.834552
vt 0.134042 0.816024
vt 0.214672 0.200343
vt 0.271621 0.164245
vt 0.701956 0.061320
vt 0.617737 0.072262
vt 0.625794 0.017494
vt 0.689096 0.000000
vt 0.447186 0.333109
vt 0.535394 0.310652
vt 0.575010 0.394663
vt 0.383886 0.429608
vt 0.580030 0.182361
vt 0.516317 0.259310
vt 0.482974 0.213838
vt 0.538605 0.127654
vt 0.084578 0.454272
vt 0.080711 0.528766
vt 0.000000 0.535016
vt 0.006069 0.445810
vt 0.427229 0.168830
vt 0.456168 0.060054
vt 0.524285 -0.000000
vt 0.580030 0.045008
vt 0.314022 0.128334
vt 0.360276 0.019316
vt 0.298346 0.392277
vt 0.376431 0.310652
vt 0.784014 0.176977
vt 0.760357 0.162914
vt 0.193364 0.584352
vt 0.174027 0.568107
vt 0.861471 0.558020
vt 0.872572 0.575064
vt 0.821606 0.601216
vt 0.790281 0.567303
vt 0.189300 0.526164
vt 0.145163 0.499491
vt 0.447189 0.269648
vt 0.419631 0.310652
vt 0.392007 0.274592
vt 0.417228 0.232534
vt 0.193646 0.467464
vt 0.151292 0.439560
vt 0.344320 0.240051
vt 0.369564 0.196760
vt 0.220787 0.417950
vt 0.177535 0.387734
vt 0.293949 0.227381
vt 0.298130 0.175839
vt 0.301322 0.440781
vt 0.369776 0.480773
vt 0.346390 0.527571
vt 0.293949 0.493717
vt 0.113024 0.387734
vt 0.774029 0.502460
vt 0.860422 0.503836
vt 0.127155 0.595800
vt 0.759740 0.110700
vt 0.873354 0.391142
vt 0.781265 0.399633
vt 0.802783 0.312550
vt 0.889672 0.310652
vt 0.988418 0.583209
vt 0.947300 0.558377
vt 0.949920 0.526429
vt 0.988418 0.497635
vt 0.854505 0.929410
vt 0.856736 0.957535
vt 0.820025 0.994810
vt 0.820025 0.916124
vt 0.743520 0.794684
vt 0.743520 0.720980
vt 0.773079 0.728825
vt 0.758638 0.790366
vt 0.073721 0.638612
vt 0.040372 0.621487
vt 0.711700 0.286481
vt 0.704349 0.263106
vt 0.738608 0.257422
vt 0.738608 0.294345
vt 0.752146 0.253148
vt 0.258002 0.533267
vt 0.239914 0.610262
vt 0.889673 0.637853
vt 0.863537 0.644386
vt 0.250209 0.504343
vt 0.350885 0.299918
vt 0.333097 0.269690
vt 0.251731 0.468121
vt 0.820025 0.993261
vt 0.774029 0.971578
vt 0.774029 0.916124
vt 0.814985 0.936392
vt 0.268551 0.418998
vt 0.116145 0.168224
vt 0.150616 0.242804
vt 0.742673 0.146339
vt 0.667881 0.139429
vt 0.157651 0.164378
vt 0.742139 0.104258
vt 0.600629 0.115343
vt 0.141966 0.323980
vt 0.605717 0.184058
vt 0.592109 0.177003
vt 0.842959 0.253148
vt 0.850228 0.307538
vt 0.837488 0.307538
vt 0.580030 0.170124
vt 0.214965 0.060346
vt 0.155752 0.094660
vt 0.122784 0.073227
vt 0.183286 0.029202
vt 0.439063 0.518536
vt 0.412253 0.556720
vt 0.161172 -0.000000
vt 0.465807 0.584605
vt 0.424930 0.599225
vt 0.552947 0.659576
vt 0.555429 0.699655
vt 0.542407 0.701084
vt 0.541431 0.670513
vt 0.512765 0.962617
vt 0.499708 0.958457
vt 0.503045 0.929187
vt 0.512765 0.941459
vt 0.524334 0.626049
vt 0.532740 0.606465
vt 0.137051 0.932070
vt 0.135570 0.895420
vt 0.148169 0.894780
vt 0.148169 0.936726
vt 0.484411 0.626861
vt 0.480485 0.606465
vt 0.458367 0.866167
vt 0.436168 0.838228
vt 0.438013 0.818682
vt 0.472011 0.852897
vt 0.447491 0.659795
vt 0.434027 0.647306
vt 0.459306 0.917733
vt 0.472011 0.917846
vt 0.446246 0.715985
vt 0.432084 0.718842
vt 0.918364 0.423100
vt 0.921262 0.368574
vt 0.929432 0.354276
vt 0.931890 0.425440
vt 0.466621 0.774812
vt 0.458724 0.793114
vt 0.889673 0.479450
vt 0.898157 0.497635
vt 0.452270 0.703199
vt 0.468484 0.751113
vt 0.010159 0.948581
vt 0.012668 0.994669
vt -0.000000 0.983426
vt -0.000000 0.930026
vt 0.970612 0.925751
vt 0.980704 0.923810
vt 0.975128 0.966099
vt 0.962361 0.978034
vt 0.433792 0.947895
vt 0.449273 0.915403
vt 0.441573 0.957980
vt 0.962361 0.879443
vt 0.974160 0.888631
vt 0.449851 0.876760
vt 0.381782 0.937778
vt 0.396837 0.951302
vt 0.395466 0.979323
vt 0.381782 0.975117
vt 0.432084 0.856478
vt 0.524852 0.668910
vt 0.509304 0.632107
vt 0.871673 0.156749
vt 0.876295 0.196327
vt 0.855158 0.206451
vt 0.850473 0.159022
vt 0.527206 0.694998
vt 0.879811 0.221618
vt 0.862686 0.234986
vt 0.191691 0.147477
vt 0.206159 0.166287
vt 0.745665 0.066451
vt 0.724272 0.059399
vt 0.482322 0.818682
vt 0.488395 0.784516
vt 0.664154 0.309610
vt 0.645986 0.299598
vt 0.645986 0.257422
vt 0.673385 0.281931
vt 0.274936 0.133915
vt 0.293949 0.469864
vt 0.271964 0.480024
vt 0.271964 0.407736
vt 0.289059 0.387734
vt 0.548166 0.724239
vt 0.537258 0.723525
vt 0.510466 0.986532
vt 0.502310 0.982065
vt 0.889180 0.931464
vt 0.886481 0.941615
vt 0.864189 0.940162
vt 0.863826 0.916124
vt 0.026668 0.954169
vt 0.025401 0.924508
vt 0.916949 0.902915
vt 0.936165 0.933330
vt 0.923112 0.941253
vt 0.913674 0.911705
vt 0.665169 0.935455
vt 0.674048 0.936018
vt 0.679229 0.971568
vt 0.669693 0.967631
vt 0.942645 0.910982
vt 0.934322 0.900304
vt 0.499179 0.940435
vt 0.477456 0.965095
vt 0.472011 0.942680
vt 0.482730 0.940319
vt 0.228308 0.101763
vt 0.232287 0.113473
vt 0.198849 0.137960
vt 0.204521 0.112751
vt 0.930221 0.283155
vt 0.898955 0.262460
vt 0.909644 0.246807
vt 0.929701 0.263021
vt 0.525100 0.741285
vt 0.513017 0.730741
vt 0.521185 0.714212
vt 0.880319 0.252157
vt 0.891858 0.236300
vt 0.251986 0.102996
vt 0.254296 0.101729
vt 0.262477 0.469202
vt 0.270030 0.474845
vt 0.919569 0.298310
vt 0.850473 0.271206
vt 0.564967 0.898022
vt 0.574462 0.906303
vt 0.564967 0.927374
vt 0.263341 0.080748
vt 0.247893 0.094169
vt 0.241467 0.083389
vt 0.257122 0.070423
vt 0.900910 0.228908
vt 0.889497 0.212834
vt 0.225024 0.091536
vt 0.915585 0.238866
vt 0.201236 0.102524
vt 0.935643 0.255080
vt 0.714518 0.294345
vt 0.714742 0.308473
vt 0.704349 0.309219
vt 0.705044 0.294345
vt 0.484700 0.929187
vt 0.472539 0.931432
vt 0.915614 0.896124
vt 0.931335 0.894281
vt 0.499708 0.929187
vt 0.620846 0.299827
vt 0.621069 0.310305
vt 0.610159 0.310538
vt 0.610159 0.298746
vt 0.665169 0.975685
vt 0.675790 0.980871
vt 0.877803 0.947785
vt 0.856736 0.946465
vt 0.126015 0.949880
vt 0.135570 0.954580
vt 0.122754 0.964294
vt 0.113665 0.960736
vt 0.274834 0.058785
vt 0.269909 0.048138
vt 0.885295 0.186036
vt 0.293949 0.034605
vt 0.289787 0.025609
vt 0.879569 0.147531
vt 0.038740 0.951897
vt 0.026668 0.924508
vt 0.035121 0.927135
vt 0.048922 0.952997
vt 0.935643 0.193064
vt 0.946402 0.187514
vt 0.946902 0.216341
vt 0.935643 0.221903
vt 0.026668 0.986423
vt 0.035936 0.987784
vt 0.126014 0.834552
vt 0.135570 0.842565
vt 0.113426 0.863531
vt 0.105385 0.856111
vt 0.988116 0.919717
vt 0.986968 0.961804
vt 0.112300 0.907722
vt 0.101890 0.901903
vt 0.889180 0.978350
vt 0.881860 0.986667
vt 0.916190 0.874000
vt 0.931191 0.878875
vt 0.990093 0.372214
vt 0.984722 0.392622
vt 0.972360 0.384208
vt 0.977050 0.369781
vt 0.922406 0.852846
vt 0.936657 0.857184
vt 0.987878 0.352707
vt 0.976928 0.348909
vt 0.929622 0.834910
vt 0.943790 0.838354
vt 0.986146 0.333781
vt 0.974337 0.330244
vt 0.928660 0.821702
vt 0.944381 0.819858
vt 0.990683 0.321922
vt 0.978321 0.313509
vt 0.960701 0.820392
vt 0.962361 0.848004
vt 0.960318 0.327770
vt 0.960761 0.310652
vt 0.957715 0.867497
vt 0.897672 0.197297
vt 0.909719 0.211979
vt 0.949497 0.882216
vt 0.961842 0.364416
vt 0.960592 0.346073
vt 0.941310 0.904191
vt 0.960318 0.390104
vt 0.427286 0.970956
vt 0.411781 0.961186
vt 0.427286 0.937778
vt 0.426254 0.959388
vt 1.000000 0.392246
vt 0.982878 0.404001
vt 0.890379 0.850280
vt 0.906254 0.899724
vt 0.267013 0.928558
vt 0.264069 0.907955
vt 0.292746 0.905499
vt 0.264965 0.951284
vt 0.890379 0.804655
vt 0.258163 0.889974
vt 0.292746 0.859413
vt 0.918343 0.779839
vt 0.256486 0.875871
vt 0.271681 0.835426
vt 0.947412 0.783637
vt 0.673385 0.267843
vt 0.686830 0.261174
vt 0.698047 0.285690
vt 0.673385 0.301384
vt 0.704349 0.257422
vt 0.932828 0.717973
vt 0.952377 0.779839
vt 0.909942 0.758330
vt 0.897519 0.701932
vt 0.933978 0.480428
vt 0.960318 0.413953
vt 0.936731 0.648089
vt 0.917369 0.635237
vt 0.948604 0.341388
vt 0.952377 0.593762
vt 0.936057 0.589047
vt 0.889673 0.316743
vt 0.907788 0.310652
vt 0.562769 0.859553
vt 0.564569 0.906906
vt 0.549359 0.917799
vt 0.537274 0.875488
vt 0.610159 0.310538
vt 0.590964 0.308275
vt 0.580030 0.257422
vt 0.610159 0.260026
vt 0.558671 0.818682
vt 0.522074 0.834642
vt 0.865359 0.779839
vt 0.890379 0.797789
vt 0.885861 0.854363
vt 0.851819 0.833501
vt 0.889673 0.537499
vt 0.895962 0.501512
vt 0.935601 0.497635
vt 0.925863 0.536520
vt 0.877008 0.892638
vt 0.846497 0.880495
vt 0.774029 0.698782
vt 0.895419 0.708438
vt 0.897519 0.779839
vt 0.781946 0.745681
vt 0.774029 0.916124
vt 0.774029 0.844609
vt 0.775496 0.644386
vt 0.874441 0.644386
vt 0.591036 0.909986
vt 0.603948 0.814245
vt 0.644139 0.828449
vt 0.644139 0.949466
vt 0.522074 0.943286
vt 0.575010 0.854038
vt 0.947300 0.566185
vt 0.889673 0.563396
vt 0.864579 0.912795
vt 0.812822 0.893875
vt 0.250813 0.056709
vt 0.173962 0.121659
vt 0.401525 0.606465
vt 0.310318 0.525177
vt 0.332227 0.942338
vt 0.363627 0.923850
vt 0.363627 0.971837
vt 0.328632 0.984439
vt 0.952377 0.720055
vt 0.992316 0.690038
vt 0.992316 0.758156
vt 0.960747 0.767611
s 0
f 47/1/1 1/2/1 3/3/1 45/4/1
f 4/5/2 2/6/2 48/7/2 46/8/2
f 45/4/3 3/3/3 5/9/3 43/10/3
f 6/11/4 4/5/4 46/8/4 44/12/4
f 3/13/5 9/14/5 7/15/5 5/16/5
f 8/17/6 10/18/6 4/5/6 6/11/6
f 1/2/7 11/19/7 9/20/7 3/3/7
f 10/18/8 12/21/8 2/6/8 4/5/8
f 11/22/9 13/23/9 15/24/9 9/25/9
f 16/26/10 14/27/10 12/21/10 10/18/10
f 9/25/11 15/24/11 17/28/11 7/29/11
f 18/30/12 16/26/12 10/18/12 8/17/12
f 15/24/13 21/31/13 19/32/13 17/28/13
f 20/33/14 22/34/14 16/35/14 18/36/14
f 13/23/15 23/37/15 21/31/15 15/24/15
f 22/34/16 24/38/16 14/39/16 16/35/16
f 23/40/17 25/41/17 27/42/17 21/43/17
f 28/44/18 26/45/18 24/38/18 22/34/18
f 21/43/19 27/42/19 29/46/19 19/47/19
f 30/48/20 28/44/20 22/34/20 20/33/20
f 27/42/21 33/49/21 31/50/21 29/46/21
f 32/51/22 34/52/22 28/44/22 30/48/22
f 25/53/23 35/54/23 33/55/23 27/56/23
f 34/52/24 36/57/24 26/45/24 28/44/24
f 35/54/25 37/58/25 39/59/25 33/55/25
f 40/60/26 38/61/26 36/62/26 34/63/26
f 33/55/27 39/59/27 41/64/27 31/65/27
f 42/66/28 40/60/28 34/63/28 32/67/28
f 39/59/29 45/4/29 43/10/29 41/64/29
f 44/68/30 46/69/30 40/60/30 42/66/30
f 37/58/31 47/1/31 45/4/31 39/59/31
f 46/69/32 48/70/32 38/61/32 40/60/32
f 47/71/33 37/72/33 51/73/33 49/74/33
f 52/75/34 38/61/34 48/70/34 50/76/34
f 37/72/35 35/77/35 53/78/35 51/73/35
f 54/79/36 36/80/36 38/81/36 52/82/36
f 35/83/37 25/41/37 55/84/37 53/85/37
f 56/86/38 26/87/38 36/80/38 54/79/38
f 25/41/39 23/40/39 57/88/39 55/84/39
f 58/89/40 24/90/40 26/87/40 56/86/40
f 23/91/41 13/92/41 59/93/41 57/94/41
f 60/95/42 14/96/42 24/97/42 58/98/42
f 13/92/43 11/99/43 63/100/43 59/93/43
f 64/101/44 12/102/44 14/96/44 60/95/44
f 11/103/45 1/104/45 65/105/45 63/106/45
f 66/107/46 2/108/46 12/109/46 64/110/46
f 1/104/47 47/111/47 49/112/47 65/105/47
f 50/113/48 48/114/48 2/108/48 66/107/48
f 61/115/49 65/116/49 49/117/49
f 50/118/50 66/119/50 62/120/50
f 63/121/51 65/116/51 61/115/51
f 62/120/52 66/119/52 64/122/52
f 61/115/53 59/123/53 63/121/53
f 64/124/54 60/125/54 62/126/54
f 61/115/55 57/127/55 59/123/55
f 60/125/56 58/128/56 62/126/56
f 61/115/57 55/129/57 57/127/57
f 58/128/58 56/130/58 62/126/58
f 61/115/59 53/131/59 55/129/59
f 56/130/60 54/132/60 62/126/60
f 61/115/61 51/133/61 53/131/61
f 54/132/62 52/134/62 62/126/62
f 61/115/63 49/117/63 51/133/63
f 52/135/64 50/118/64 62/120/64
f 89/136/65 174/137/65 176/138/65 91/139/65
f 176/138/66 175/140/66 90/141/66 91/139/66
f 87/142/67 172/143/67 174/137/67 89/136/67
f 175/140/68 173/144/68 88/145/68 90/141/68
f 85/146/69 170/147/69 172/148/69 87/149/69
f 173/144/70 171/150/70 86/151/70 88/145/70
f 83/152/71 168/153/71 170/147/71 85/146/71
f 171/150/72 169/154/72 84/155/72 86/151/72
f 81/156/73 166/157/73 168/153/73 83/152/73
f 169/158/74 167/159/74 82/160/74 84/161/74
f 79/162/75 92/163/75 146/164/75 164/165/75
f 147/166/76 93/167/76 80/168/76 165/169/76
f 92/170/77 94/171/77 148/172/77 146/173/77
f 149/174/78 95/175/78 93/167/78 147/166/78
f 94/176/79 96/177/79 150/178/79 148/179/79
f 151/180/80 97/181/80 95/175/80 149/174/80
f 96/177/81 98/182/81 152/183/81 150/178/81
f 153/184/82 99/185/82 97/181/82 151/180/82
f 98/182/83 100/186/83 154/187/83 152/183/83
f 155/188/84 101/189/84 99/190/84 153/191/84
f 100/186/85 102/192/85 156/193/85 154/187/85
f 157/194/86 103/195/86 101/189/86 155/188/86
f 102/192/87 104/196/87 158/197/87 156/193/87
f 159/198/88 105/199/88 103/195/88 157/194/88
f 104/196/89 106/200/89 160/201/89 158/197/89
f 161/202/90 107/203/90 105/204/90 159/205/90
f 106/206/91 108/207/91 162/208/91 160/209/91
f 163/210/92 109/211/92 107/203/92 161/202/92
f 108/207/93 67/212/93 68/213/93 162/208/93
f 68/214/94 67/215/94 109/211/94 163/210/94
f 110/216/95 128/217/95 160/201/95 162/218/95
f 161/219/96 129/220/96 111/221/96 163/222/96
f 128/217/97 179/223/97 158/197/97 160/201/97
f 159/224/98 180/225/98 129/220/98 161/219/98
f 126/226/99 156/227/99 158/228/99 179/229/99
f 159/224/100 157/230/100 127/231/100 180/225/100
f 124/232/101 154/233/101 156/227/101 126/226/101
f 157/230/102 155/234/102 125/235/102 127/231/102
f 122/236/103 152/237/103 154/233/103 124/232/103
f 155/234/104 153/184/104 123/238/104 125/235/104
f 120/239/105 150/178/105 152/183/105 122/240/105
f 153/184/106 151/180/106 121/241/106 123/238/106
f 118/242/107 148/179/107 150/178/107 120/239/107
f 151/180/108 149/174/108 119/243/108 121/241/108
f 116/244/109 146/245/109 148/179/109 118/242/109
f 149/174/110 147/166/110 117/246/110 119/243/110
f 114/247/111 164/248/111 146/245/111 116/244/111
f 147/249/112 165/250/112 115/251/112 117/252/112
f 114/247/113 181/253/113 177/254/113 164/248/113
f 177/254/114 182/255/114 115/251/114 165/250/114
f 110/216/115 162/218/115 68/256/115 112/257/115
f 68/258/116 163/222/116 111/221/116 113/259/116
f 112/257/117 68/256/117 178/260/117 183/261/117
f 178/262/118 68/258/118 113/259/118 184/263/118
f 177/254/119 181/253/119 183/261/119 178/260/119
f 184/264/120 182/255/120 177/254/120 178/260/120
f 135/265/121 137/266/121 176/138/121 174/137/121
f 176/138/122 137/266/122 136/267/122 175/140/122
f 133/268/123 135/265/123 174/137/123 172/143/123
f 175/140/124 136/267/124 134/269/124 173/144/124
f 131/270/125 133/271/125 172/148/125 170/147/125
f 173/144/126 134/269/126 132/272/126 171/150/126
f 166/157/127 187/273/127 185/274/127 168/153/127
f 186/275/128 188/276/128 167/277/128 169/278/128
f 131/270/129 170/147/129 168/153/129 185/274/129
f 169/154/130 171/150/130 132/272/130 186/279/130
f 144/280/131 190/281/131 189/282/131 187/273/131
f 189/282/132 190/281/132 145/283/132 188/276/132
f 185/274/133 187/273/133 189/282/133 69/284/133
f 189/282/134 188/276/134 186/275/134 69/284/134
f 130/285/135 131/270/135 185/274/135 69/284/135
f 186/275/135 132/286/135 130/285/135 69/284/135
f 142/287/136 193/288/136 191/289/136 144/290/136
f 192/291/137 194/292/137 143/293/137 145/294/137
f 140/295/138 195/296/138 193/297/138 142/298/138
f 194/299/139 196/300/139 141/301/139 143/302/139
f 139/303/140 197/304/140 195/296/140 140/295/140
f 196/305/141 198/306/141 139/307/141 141/308/141
f 138/309/142 71/310/142 197/311/142 139/312/142
f 198/313/143 71/314/143 138/315/143 139/316/143
f 190/317/144 144/290/144 191/289/144 70/318/144
f 192/291/145 145/294/145 190/319/145 70/320/145
f 70/320/146 191/321/146 206/322/146 208/323/146
f 207/324/147 192/291/147 70/320/147 208/323/147
f 71/310/148 199/325/148 200/326/148 197/311/148
f 201/327/149 199/328/149 71/314/149 198/313/149
f 197/329/150 200/330/150 202/331/150 195/332/150
f 203/333/151 201/334/151 198/335/151 196/300/151
f 195/332/152 202/331/152 204/336/152 193/337/152
f 205/338/153 203/333/153 196/300/153 194/299/153
f 193/288/154 204/339/154 206/340/154 191/289/154
f 207/324/155 205/341/155 194/292/155 192/291/155
f 199/342/156 204/336/156 202/331/156 200/330/156
f 203/343/157 205/344/157 199/328/157 201/327/157
f 199/345/158 208/323/158 206/322/158 204/346/158
f 207/324/159 208/323/159 199/345/159 205/341/159
f 139/347/160 140/348/160 164/349/160 177/350/160
f 165/250/161 141/351/161 139/352/161 177/254/161
f 140/348/162 142/353/162 211/354/162 164/349/162
f 212/355/163 143/356/163 141/351/163 165/250/163
f 142/357/164 144/280/164 213/358/164 211/359/164
f 214/360/165 145/294/165 143/293/165 212/361/165
f 144/280/166 187/273/166 166/157/166 213/358/166
f 167/277/167 188/276/167 145/283/167 214/362/167
f 81/156/168 209/363/168 213/358/168 166/157/168
f 214/364/169 210/365/169 82/160/169 167/159/169
f 209/363/170 215/366/170 211/359/170 213/358/170
f 212/367/171 216/368/171 210/365/171 214/364/171
f 79/369/172 164/370/172 211/359/172 215/366/172
f 212/367/173 165/371/173 80/372/173 216/368/173
f 131/373/174 130/374/174 72/375/174 222/376/174
f 72/375/175 130/374/175 132/272/175 223/377/175
f 133/268/176 131/373/176 222/376/176 220/378/176
f 223/379/177 132/380/177 134/381/177 221/382/177
f 135/265/178 133/268/178 220/378/178 218/383/178
f 221/382/179 134/381/179 136/384/179 219/385/179
f 137/386/180 135/387/180 218/388/180 217/389/180
f 219/385/181 136/384/181 137/386/181 217/389/181
f 217/390/182 218/391/182 229/392/182 231/393/182
f 230/394/183 219/395/183 217/396/183 231/397/183
f 218/391/184 220/398/184 227/399/184 229/392/184
f 228/400/185 221/401/185 219/395/185 230/394/185
f 220/398/186 222/402/186 225/403/186 227/399/186
f 226/404/187 223/405/187 221/406/187 228/407/187
f 222/408/188 72/409/188 224/410/188 225/411/188
f 224/412/189 72/375/189 223/377/189 226/413/189
f 224/414/190 231/415/190 229/416/190 225/417/190
f 230/418/191 231/415/191 224/414/191 226/419/191
f 225/417/192 229/416/192 227/420/192
f 228/421/193 230/422/193 226/423/193
f 183/424/194 181/425/194 234/426/194 232/427/194
f 235/428/195 182/255/195 184/264/195 233/429/195
f 112/430/196 183/424/196 232/427/196 254/431/196
f 233/429/197 184/264/197 113/432/197 255/433/197
f 110/216/198 112/257/198 254/434/198 256/435/198
f 255/433/199 113/432/199 111/436/199 257/437/199
f 181/425/200 114/438/200 252/439/200 234/426/200
f 253/440/201 115/251/201 182/255/201 235/428/201
f 114/438/202 116/441/202 250/442/202 252/439/202
f 251/443/203 117/246/203 115/444/203 253/445/203
f 116/244/204 118/242/204 248/446/204 250/447/204
f 249/448/205 119/243/205 117/246/205 251/443/205
f 118/242/206 120/239/206 246/449/206 248/446/206
f 247/450/207 121/241/207 119/243/207 249/448/207
f 120/239/208 122/240/208 244/451/208 246/449/208
f 245/452/209 123/238/209 121/241/209 247/450/209
f 122/240/210 124/453/210 242/454/210 244/451/210
f 243/455/211 125/456/211 123/457/211 245/458/211
f 124/453/212 126/459/212 240/460/212 242/454/212
f 241/461/213 127/462/213 125/456/213 243/455/213
f 126/459/214 179/223/214 236/463/214 240/460/214
f 237/464/215 180/465/215 127/462/215 241/461/215
f 179/223/216 128/217/216 238/466/216 236/463/216
f 239/467/217 129/468/217 180/469/217 237/470/217
f 128/217/218 110/216/218 256/435/218 238/466/218
f 257/437/219 111/436/219 129/468/219 239/467/219
f 238/466/220 256/435/220 258/471/220 276/472/220
f 259/473/221 257/474/221 239/475/221 277/476/221
f 236/463/222 238/466/222 276/472/222 278/477/222
f 277/476/223 239/475/223 237/478/223 279/479/223
f 240/480/224 236/481/224 278/482/224 274/483/224
f 279/479/225 237/478/225 241/484/225 275/485/225
f 242/486/226 240/480/226 274/483/226 272/487/226
f 275/485/227 241/484/227 243/488/227 273/489/227
f 244/490/228 242/486/228 272/487/228 270/491/228
f 273/492/229 243/493/229 245/494/229 271/495/229
f 246/496/230 244/490/230 270/491/230 268/497/230
f 271/495/231 245/494/231 247/498/231 269/499/231
f 248/446/232 246/449/232 268/500/232 266/501/232
f 269/499/233 247/498/233 249/502/233 267/503/233
f 250/447/234 248/446/234 266/501/234 264/504/234
f 267/503/235 249/502/235 251/505/235 265/506/235
f 252/507/236 250/447/236 264/504/236 262/508/236
f 265/509/237 251/510/237 253/511/237 263/512/237
f 234/513/238 252/507/238 262/508/238 280/514/238
f 263/512/239 253/511/239 235/515/239 281/516/239
f 256/435/240 254/434/240 260/517/240 258/471/240
f 261/518/241 255/519/241 257/474/241 259/473/241
f 254/434/242 232/520/242 282/521/242 260/517/242
f 283/522/243 233/523/243 255/519/243 261/518/243
f 232/520/244 234/513/244 280/514/244 282/521/244
f 281/516/245 235/515/245 233/524/245 283/525/245
f 67/212/246 108/207/246 284/526/246 73/527/246
f 285/528/247 109/529/247 67/530/247 73/531/247
f 108/207/248 106/206/248 286/532/248 284/526/248
f 287/533/249 107/534/249 109/529/249 285/528/249
f 106/535/250 104/536/250 288/537/250 286/538/250
f 289/539/251 105/540/251 107/534/251 287/533/251
f 104/536/252 102/541/252 290/542/252 288/537/252
f 291/543/253 103/195/253 105/199/253 289/544/253
f 102/541/254 100/545/254 292/546/254 290/542/254
f 293/547/255 101/189/255 103/195/255 291/543/255
f 100/545/256 98/548/256 294/549/256 292/546/256
f 295/550/257 99/190/257 101/189/257 293/547/257
f 98/548/258 96/551/258 296/552/258 294/549/258
f 297/553/259 97/554/259 99/555/259 295/556/259
f 96/557/260 94/558/260 298/559/260 296/560/260
f 299/561/261 95/562/261 97/554/261 297/553/261
f 94/558/262 92/163/262 300/563/262 298/559/262
f 301/564/263 93/565/263 95/562/263 299/561/263
f 308/566/264 309/567/264 328/568/264 338/569/264
f 329/570/265 309/571/265 308/572/265 339/573/265
f 307/574/266 308/572/266 338/575/266 336/576/266
f 339/573/267 308/572/267 307/574/267 337/577/267
f 306/578/268 307/574/268 336/576/268 340/579/268
f 337/577/269 307/574/269 306/578/269 341/580/269
f 89/581/270 91/582/270 306/583/270 340/584/270
f 306/585/271 91/139/271 90/141/271 341/586/271
f 87/587/272 89/581/272 340/584/272 334/588/272
f 341/589/273 90/590/273 88/591/273 335/592/273
f 85/593/274 87/587/274 334/588/274 330/594/274
f 335/595/275 88/596/275 86/597/275 331/598/275
f 83/599/276 85/600/276 330/601/276 332/602/276
f 331/603/277 86/604/277 84/161/277 333/605/277
f 330/606/278 336/576/278 338/575/278 332/607/278
f 339/573/279 337/577/279 331/598/279 333/608/279
f 330/606/280 334/609/280 340/579/280 336/576/280
f 341/580/281 335/595/281 331/598/281 337/577/281
f 326/610/282 332/611/282 338/569/282 328/568/282
f 339/573/283 333/608/283 327/612/283 329/570/283
f 81/613/284 83/599/284 332/602/284 326/614/284
f 333/605/285 84/161/285 82/160/285 327/615/285
f 209/616/286 342/617/286 344/618/286 215/619/286
f 345/620/287 343/621/287 210/365/287 216/368/287
f 81/613/288 326/614/288 342/617/288 209/616/288
f 343/621/289 327/615/289 82/160/289 210/365/289
f 79/622/290 215/619/290 344/618/290 346/623/290
f 345/620/291 216/368/291 80/372/291 347/624/291
f 79/162/292 346/625/292 300/563/292 92/163/292
f 301/564/293 347/626/293 80/627/293 93/565/293
f 77/628/294 324/629/294 352/630/294 304/631/294
f 353/632/295 325/633/295 77/634/295 304/635/295
f 304/631/296 352/630/296 350/636/296 78/637/296
f 351/638/297 353/632/297 304/635/297 78/639/297
f 78/637/298 350/636/298 348/640/298 305/641/298
f 349/642/299 351/643/299 78/644/299 305/645/299
f 305/641/300 348/640/300 328/568/300 309/567/300
f 329/646/301 349/642/301 305/645/301 309/647/301
f 326/610/302 328/568/302 348/640/302 342/648/302
f 349/649/303 329/650/303 327/615/303 343/621/303
f 296/560/304 298/559/304 318/651/304 310/652/304
f 319/653/305 299/654/305 297/655/305 311/656/305
f 76/657/306 316/658/306 324/659/306 77/634/306
f 325/633/307 317/660/307 76/657/307 77/634/307
f 302/661/308 358/662/308 356/663/308 303/664/308
f 357/665/309 359/666/309 302/667/309 303/668/309
f 303/664/310 356/663/310 354/669/310 75/670/310
f 355/671/311 357/672/311 303/664/311 75/670/311
f 75/670/312 354/669/312 316/673/312 76/674/312
f 317/660/313 355/675/313 75/676/313 76/657/313
f 292/546/314 294/549/314 362/677/314 364/678/314
f 363/679/315 295/550/315 293/547/315 365/680/315
f 364/681/316 362/682/316 368/683/316 366/684/316
f 369/685/317 363/679/317 365/680/317 367/686/317
f 366/687/318 368/688/318 370/689/318 372/690/318
f 371/691/319 369/685/319 367/686/319 373/692/319
f 372/690/320 370/689/320 376/693/320 374/694/320
f 377/695/321 371/691/321 373/692/321 375/696/321
f 314/697/322 378/698/322 374/694/322 376/693/322
f 375/699/323 379/700/323 315/701/323 377/702/323
f 316/673/324 354/669/324 374/694/324 378/698/324
f 375/699/325 355/675/325 317/660/325 379/700/325
f 354/669/326 356/663/326 372/690/326 374/694/326
f 373/692/327 357/665/327 355/703/327 375/696/327
f 356/663/328 358/662/328 366/687/328 372/690/328
f 367/686/329 359/666/329 357/665/329 373/692/329
f 358/704/330 360/705/330 364/681/330 366/684/330
f 365/680/331 361/706/331 359/666/331 367/686/331
f 290/542/332 292/546/332 364/678/332 360/707/332
f 365/680/333 293/547/333 291/543/333 361/706/333
f 74/708/334 360/705/334 358/704/334 302/709/334
f 359/710/335 361/711/335 74/708/335 302/709/335
f 284/712/336 286/713/336 288/714/336 290/715/336
f 289/716/337 287/717/337 285/718/337 291/719/337
f 284/720/338 290/721/338 360/722/338 74/723/338
f 361/706/339 291/543/339 285/724/339 74/725/339
f 73/726/340 284/727/340 74/728/340
f 74/728/341 285/729/341 73/726/341
f 294/549/342 296/552/342 310/730/342 362/677/342
f 311/731/343 297/732/343 295/550/343 363/679/343
f 310/733/344 312/734/344 368/683/344 362/682/344
f 369/685/345 313/735/345 311/731/345 363/679/345
f 312/736/346 382/737/346 370/689/346 368/688/346
f 371/691/347 383/738/347 313/735/347 369/685/347
f 314/739/348 376/740/348 370/741/348 382/742/348
f 371/691/349 377/695/349 315/743/349 383/738/349
f 348/640/350 350/636/350 386/744/350 384/745/350
f 387/746/351 351/643/351 349/642/351 385/747/351
f 318/651/352 384/745/352 386/744/352 320/748/352
f 387/746/353 385/747/353 319/653/353 321/749/353
f 298/559/354 300/563/354 384/745/354 318/651/354
f 385/747/355 301/750/355 299/654/355 319/653/355
f 300/563/356 344/751/356 342/648/356 384/745/356
f 343/752/357 345/753/357 301/750/357 385/747/357
f 342/648/358 348/640/358 384/745/358
f 385/747/359 349/642/359 343/752/359
f 300/754/360 346/755/360 344/756/360
f 345/753/361 347/757/361 301/750/361
f 314/758/362 322/759/362 380/760/362 378/761/362
f 381/762/363 323/763/363 315/701/363 379/700/363
f 316/764/364 378/761/364 380/760/364 324/629/364
f 381/762/365 379/700/365 317/660/365 325/633/365
f 320/748/366 386/744/366 380/760/366 322/759/366
f 381/762/367 387/765/367 321/766/367 323/763/367
f 350/636/368 352/630/368 380/760/368 386/744/368
f 381/762/369 353/632/369 351/638/369 387/765/369
f 324/629/370 380/760/370 352/630/370
f 353/632/371 381/762/371 325/633/371
f 400/767/372 388/768/372 414/769/372 402/770/372
f 415/771/373 389/772/373 401/773/373 403/774/373
f 400/767/374 402/770/374 404/775/374 398/776/374
f 405/777/375 403/778/375 401/779/375 399/780/375
f 398/776/376 404/775/376 406/781/376 396/782/376
f 407/783/377 405/784/377 399/785/377 397/786/377
f 396/782/378 406/781/378 408/787/378 394/788/378
f 409/789/379 407/783/379 397/786/379 395/790/379
f 394/788/380 408/787/380 410/791/380 392/792/380
f 411/793/381 409/794/381 395/795/381 393/796/381
f 392/792/382 410/791/382 412/797/382 390/798/382
f 413/799/383 411/793/383 393/796/383 391/800/383
f 410/791/384 420/801/384 418/802/384 412/797/384
f 419/803/385 421/804/385 411/805/385 413/806/385
f 408/807/386 422/808/386 420/809/386 410/810/386
f 421/811/387 423/812/387 409/789/387 411/813/387
f 406/814/388 424/815/388 422/808/388 408/807/388
f 423/812/389 425/816/389 407/783/389 409/789/389
f 404/817/390 426/818/390 424/819/390 406/820/390
f 425/816/391 427/821/391 405/784/391 407/783/391
f 402/770/392 428/822/392 426/823/392 404/775/392
f 427/824/393 429/825/393 403/826/393 405/827/393
f 402/770/394 414/769/394 416/828/394 428/822/394
f 417/829/395 415/830/395 403/826/395 429/825/395
f 318/651/396 320/748/396 444/831/396 442/832/396
f 445/833/397 321/749/397 319/653/397 443/834/397
f 320/835/398 390/798/398 412/797/398 444/836/398
f 413/837/399 391/838/399 321/839/399 445/840/399
f 310/652/400 318/651/400 442/832/400 312/841/400
f 443/842/401 319/843/401 311/844/401 313/845/401
f 382/846/402 430/847/402 414/769/402 388/768/402
f 415/771/403 431/848/403 383/849/403 389/772/403
f 412/850/404 418/851/404 440/852/404 444/853/404
f 441/854/405 419/803/405 413/806/405 445/855/405
f 438/856/406 446/857/406 444/858/406 440/859/406
f 445/860/407 447/861/407 439/862/407 441/863/407
f 434/864/408 446/857/408 438/856/408 436/865/408
f 439/866/409 447/867/409 435/868/409 437/869/409
f 432/870/410 448/871/410 446/872/410 434/873/410
f 447/874/411 449/875/411 433/876/411 435/877/411
f 430/847/412 448/878/412 432/879/412 450/880/412
f 433/876/413 449/875/413 431/881/413 451/882/413
f 414/769/414 430/847/414 450/880/414 416/828/414
f 451/882/415 431/881/415 415/830/415 417/829/415
f 312/841/416 448/871/416 430/883/416 382/884/416
f 431/885/417 449/886/417 313/735/417 383/738/417
f 312/841/418 442/832/418 446/872/418 448/871/418
f 447/874/419 443/887/419 313/888/419 449/875/419
f 442/832/420 444/831/420 446/872/420
f 447/889/421 445/890/421 443/891/421
f 416/892/422 450/893/422 452/894/422 476/895/422
f 453/896/423 451/882/423 417/829/423 477/897/423
f 450/893/424 432/870/424 462/898/424 452/894/424
f 463/899/425 433/876/425 451/882/425 453/896/425
f 432/870/426 434/873/426 460/900/426 462/898/426
f 461/901/427 435/877/427 433/876/427 463/899/427
f 434/902/428 436/903/428 458/904/428 460/905/428
f 459/906/429 437/869/429 435/868/429 461/907/429
f 436/865/430 438/856/430 456/908/430 458/909/430
f 457/910/431 439/866/431 437/869/431 459/906/431
f 438/911/432 440/912/432 454/913/432 456/914/432
f 455/915/433 441/863/433 439/862/433 457/916/433
f 440/852/434 418/851/434 474/917/434 454/918/434
f 475/919/435 419/920/435 441/921/435 455/922/435
f 428/923/436 416/892/436 476/895/436 464/924/436
f 477/897/437 417/829/437 429/825/437 465/925/437
f 426/926/438 428/923/438 464/924/438 466/927/438
f 465/925/439 429/825/439 427/824/439 467/928/439
f 424/929/440 426/930/440 466/931/440 468/932/440
f 467/933/441 427/934/441 425/935/441 469/936/441
f 422/937/442 424/929/442 468/932/442 470/938/442
f 469/939/443 425/940/443 423/941/443 471/942/443
f 420/809/444 422/808/444 470/943/444 472/944/444
f 471/942/445 423/941/445 421/945/445 473/946/445
f 418/851/446 420/947/446 472/948/446 474/917/446
f 473/946/447 421/945/447 419/920/447 475/919/447
f 458/909/448 456/908/448 480/949/448 478/950/448
f 481/951/449 457/952/449 459/953/449 479/954/449
f 478/950/450 480/949/450 482/955/450 484/956/450
f 483/957/451 481/951/451 479/954/451 485/958/451
f 484/956/452 482/955/452 488/959/452 486/960/452
f 489/961/453 483/957/453 485/958/453 487/962/453
f 486/960/454 488/959/454 490/963/454 492/964/454
f 491/965/455 489/961/455 487/962/455 493/966/455
f 464/967/456 476/968/456 486/960/456 492/964/456
f 487/962/457 477/969/457 465/970/457 493/966/457
f 452/971/458 484/956/458 486/960/458 476/968/458
f 487/972/459 485/973/459 453/896/459 477/897/459
f 452/971/460 462/974/460 478/950/460 484/956/460
f 479/954/461 463/975/461 453/976/461 485/958/461
f 458/909/462 478/950/462 462/974/462 460/977/462
f 463/975/463 479/954/463 459/953/463 461/978/463
f 454/979/464 474/980/464 480/981/464 456/982/464
f 481/951/465 475/983/465 455/984/465 457/952/465
f 472/985/466 482/955/466 480/949/466 474/986/466
f 481/987/467 483/988/467 473/989/467 475/990/467
f 470/991/468 488/959/468 482/955/468 472/985/468
f 483/988/469 489/992/469 471/993/469 473/989/469
f 468/994/470 490/963/470 488/959/470 470/991/470
f 489/992/471 491/995/471 469/996/471 471/993/471
f 466/997/472 492/964/472 490/963/472 468/994/472
f 491/998/473 493/999/473 467/1000/473 469/1001/473
f 464/967/474 492/964/474 466/997/474
f 467/1000/475 493/999/475 465/1002/475
f 392/1003/476 390/1004/476 504/1005/476 502/1006/476
f 505/1007/477 391/800/477 393/796/477 503/1008/477
f 394/1009/478 392/1003/478 502/1006/478 500/1010/478
f 503/1008/479 393/796/479 395/795/479 501/1011/479
f 396/1012/480 394/1009/480 500/1010/480 498/1013/480
f 501/1011/481 395/795/481 397/1014/481 499/1015/481
f 398/1016/482 396/1017/482 498/1018/482 496/1019/482
f 499/1020/483 397/1021/483 399/1022/483 497/1023/483
f 400/1024/484 398/1016/484 496/1019/484 494/1025/484
f 497/1026/485 399/1027/485 401/1028/485 495/1029/485
f 388/1030/486 400/1031/486 494/1032/486 506/1033/486
f 495/1029/487 401/1028/487 389/1034/487 507/1035/487
f 494/1036/488 502/1037/488 504/1038/488 506/1039/488
f 505/1040/489 503/1041/489 495/1029/489 507/1035/489
f 494/1036/490 496/1042/490 500/1043/490 502/1037/490
f 501/1044/491 497/1045/491 495/1046/491 503/1047/491
f 496/1019/492 498/1018/492 500/1048/492
f 501/1044/493 499/1049/493 497/1045/493
f 314/1050/494 382/1051/494 388/1030/494 506/1033/494
f 389/1034/495 383/1052/495 315/1053/495 507/1035/495
f 314/758/496 506/1054/496 504/1055/496 322/759/496
f 505/1056/497 507/1057/497 315/701/497 323/763/497
f 320/1058/498 322/1059/498 504/1060/498 390/1061/498
f 505/1062/499 323/1063/499 321/1064/499 391/1065/499
