# Blender 5.0.1
# www.blender.org
mtllib cube2.mtl
o Cube
v -1.000000 -1.000000 1.000000
v -1.000000 1.000000 1.000000
v -1.000000 -1.000000 -1.000000
v -1.000000 1.000000 -1.000000
v 1.000000 -1.000000 1.000000
v 1.000000 1.000000 1.000000
v 1.000000 -1.000000 -1.000000
v 1.000000 1.000000 -1.000000
v -1.000000 -1.000000 0.000000
v -1.000000 1.000000 0.000000
v 1.000000 -1.000000 0.000000
v 1.000000 1.000000 0.000000
vn -1.0000 -0.0000 -0.0000
vn -0.0000 -0.0000 -1.0000
vn 1.0000 -0.0000 -0.0000
vn -0.0000 -0.0000 1.0000
vn -0.0000 -1.0000 -0.0000
vn -0.0000 1.0000 -0.0000
vt 0.375000 0.125000
vt 0.625000 0.125000
vt 0.625000 0.250000
vt 0.375000 0.250000
vt 0.625000 0.500000
vt 0.375000 0.500000
vt 0.375000 0.625000
vt 0.625000 0.625000
vt 0.625000 0.750000
vt 0.375000 0.750000
vt 0.625000 1.000000
vt 0.375000 1.000000
vt 0.375000 0.000000
vt 0.625000 0.000000
s 0
f 9/1/1 10/2/1 4/3/1 3/4/1
f 3/4/2 4/3/2 8/5/2 7/6/2
f 11/7/3 12/8/3 6/9/3 5/10/3
f 5/10/4 6/9/4 2/11/4
f 9/1/5 3/4/5 7/6/5 11/7/5 5/10/5 1/12/5
f 2/11/6 6/9/6 4/3/6 10/8/6
f 8/5/6 4/3/6 6/9/6 12/8/6
f 7/6/3 8/5/3 12/8/3 11/7/3
f 1/13/1 2/14/1 10/2/1 9/1/1
f 2/11/4 1/12/4 5/10/4
# Test
# f 1 2 3
# f 1/2 3/4 5/6
# f 1/2/3 4/5/6 7/8/9
